%TF.GenerationSoftware,KiCad,Pcbnew,7.0.3*%
%TF.CreationDate,2023-05-24T16:07:10-04:00*%
%TF.ProjectId,100p-keebored,31303070-2d6b-4656-9562-6f7265642e6b,rev?*%
%TF.SameCoordinates,Original*%
%TF.FileFunction,Legend,Top*%
%TF.FilePolarity,Positive*%
%FSLAX46Y46*%
G04 Gerber Fmt 4.6, Leading zero omitted, Abs format (unit mm)*
G04 Created by KiCad (PCBNEW 7.0.3) date 2023-05-24 16:07:10*
%MOMM*%
%LPD*%
G01*
G04 APERTURE LIST*
%ADD10C,0.150000*%
%ADD11C,0.120000*%
%ADD12C,0.100000*%
G04 APERTURE END LIST*
D10*
%TO.C,*%
%TO.C,SW112*%
X382051450Y-194449472D02*
X382194307Y-194497091D01*
X382194307Y-194497091D02*
X382432402Y-194497091D01*
X382432402Y-194497091D02*
X382527640Y-194449472D01*
X382527640Y-194449472D02*
X382575259Y-194401852D01*
X382575259Y-194401852D02*
X382622878Y-194306614D01*
X382622878Y-194306614D02*
X382622878Y-194211376D01*
X382622878Y-194211376D02*
X382575259Y-194116138D01*
X382575259Y-194116138D02*
X382527640Y-194068519D01*
X382527640Y-194068519D02*
X382432402Y-194020900D01*
X382432402Y-194020900D02*
X382241926Y-193973281D01*
X382241926Y-193973281D02*
X382146688Y-193925662D01*
X382146688Y-193925662D02*
X382099069Y-193878043D01*
X382099069Y-193878043D02*
X382051450Y-193782805D01*
X382051450Y-193782805D02*
X382051450Y-193687567D01*
X382051450Y-193687567D02*
X382099069Y-193592329D01*
X382099069Y-193592329D02*
X382146688Y-193544710D01*
X382146688Y-193544710D02*
X382241926Y-193497091D01*
X382241926Y-193497091D02*
X382480021Y-193497091D01*
X382480021Y-193497091D02*
X382622878Y-193544710D01*
X382956212Y-193497091D02*
X383194307Y-194497091D01*
X383194307Y-194497091D02*
X383384783Y-193782805D01*
X383384783Y-193782805D02*
X383575259Y-194497091D01*
X383575259Y-194497091D02*
X383813355Y-193497091D01*
X384718116Y-194497091D02*
X384146688Y-194497091D01*
X384432402Y-194497091D02*
X384432402Y-193497091D01*
X384432402Y-193497091D02*
X384337164Y-193639948D01*
X384337164Y-193639948D02*
X384241926Y-193735186D01*
X384241926Y-193735186D02*
X384146688Y-193782805D01*
X385670497Y-194497091D02*
X385099069Y-194497091D01*
X385384783Y-194497091D02*
X385384783Y-193497091D01*
X385384783Y-193497091D02*
X385289545Y-193639948D01*
X385289545Y-193639948D02*
X385194307Y-193735186D01*
X385194307Y-193735186D02*
X385099069Y-193782805D01*
X386051450Y-193592329D02*
X386099069Y-193544710D01*
X386099069Y-193544710D02*
X386194307Y-193497091D01*
X386194307Y-193497091D02*
X386432402Y-193497091D01*
X386432402Y-193497091D02*
X386527640Y-193544710D01*
X386527640Y-193544710D02*
X386575259Y-193592329D01*
X386575259Y-193592329D02*
X386622878Y-193687567D01*
X386622878Y-193687567D02*
X386622878Y-193782805D01*
X386622878Y-193782805D02*
X386575259Y-193925662D01*
X386575259Y-193925662D02*
X386003831Y-194497091D01*
X386003831Y-194497091D02*
X386622878Y-194497091D01*
%TO.C,*%
D11*
%TO.C,SW130*%
X70576000Y-84304800D02*
X70576000Y-83704800D01*
X70876000Y-84004800D02*
X70576000Y-84304800D01*
X70576000Y-83704800D02*
X70876000Y-84004800D01*
X68776000Y-82604800D02*
X80576000Y-82604800D01*
X68776000Y-78504800D02*
X68776000Y-82604800D01*
X80576000Y-78504800D02*
X80576000Y-82604800D01*
X74676000Y-77004800D02*
X74676000Y-76004800D01*
X74176000Y-76504800D02*
X75176000Y-76504800D01*
X68776000Y-74504800D02*
X68776000Y-70404800D01*
X68776000Y-70404800D02*
X71176000Y-70404800D01*
X73376000Y-70404800D02*
X75976000Y-70404800D01*
X78176000Y-70404800D02*
X80576000Y-70404800D01*
X80576000Y-70404800D02*
X80576000Y-74504800D01*
X77676000Y-76504800D02*
G75*
G03*
X77676000Y-76504800I-3000000J0D01*
G01*
%TO.C,D131*%
X473305904Y-113454832D02*
X473305904Y-114104832D01*
X473305904Y-113454832D02*
X476145904Y-113454832D01*
X473305904Y-115754832D02*
X476145904Y-115754832D01*
%TO.C,D132*%
X454255920Y-113454832D02*
X454255920Y-114104832D01*
X454255920Y-113454832D02*
X457095920Y-113454832D01*
X454255920Y-115754832D02*
X457095920Y-115754832D01*
%TO.C,D133*%
X435205936Y-113454832D02*
X435205936Y-114104832D01*
X435205936Y-113454832D02*
X438045936Y-113454832D01*
X435205936Y-115754832D02*
X438045936Y-115754832D01*
%TO.C,SW200*%
X218402704Y-206132156D02*
X218402704Y-204052156D01*
X219672704Y-202372156D02*
X219182704Y-202862156D01*
X219672704Y-202372156D02*
X222572704Y-202372156D01*
X219672704Y-207812156D02*
X219182704Y-207322156D01*
X219672704Y-207812156D02*
X222572704Y-207812156D01*
X222572704Y-202372156D02*
X223062704Y-202862156D01*
X222572704Y-207812156D02*
X223062704Y-207322156D01*
X223842704Y-206132156D02*
X223842704Y-204052156D01*
D12*
%TO.C,J4*%
X373062160Y-164223544D02*
X395414160Y-164223544D01*
X395414160Y-164223544D02*
X395414160Y-169760744D01*
X395414160Y-169760744D02*
X373062160Y-169760744D01*
X373062160Y-169760744D02*
X373062160Y-164223544D01*
%TD*%
M02*
