M48
; DRILL file {KiCad 7.0.3} date Wed May 24 16:07:12 2023
; FORMAT={-:-/ absolute / inch / decimal}
; #@! TF.CreationDate,2023-05-24T16:07:12-04:00
; #@! TF.GenerationSoftware,Kicad,Pcbnew,7.0.3
; #@! TF.FileFunction,NonPlated,1,2,NPTH
FMAT,2
INCH
; #@! TA.AperFunction,NonPlated,NPTH,ComponentDrill
T1C0.0256
; #@! TA.AperFunction,NonPlated,NPTH,ComponentDrill
T2C0.0591
; #@! TA.AperFunction,NonPlated,NPTH,ComponentDrill
T3C0.0689
; #@! TA.AperFunction,NonPlated,NPTH,ComponentDrill
T4C0.1200
; #@! TA.AperFunction,NonPlated,NPTH,ComponentDrill
T5C0.1570
; #@! TA.AperFunction,NonPlated,NPTH,ComponentDrill
T6C0.1575
%
G90
G05
T1
X13.795Y-2.6456
X14.0225Y-2.6456
X16.2325Y-2.6456
X16.46Y-2.6456
T3
X2.74Y-3.012
X2.74Y-3.9495
X2.74Y-5.0745
X2.8337Y-8.0745
X2.9275Y-5.8245
X3.0212Y-6.5745
X3.14Y-3.012
X3.14Y-3.9495
X3.14Y-5.0745
X3.2087Y-7.3245
X3.2338Y-8.0745
X3.3275Y-5.8245
X3.4213Y-6.5745
X3.49Y-3.012
X3.49Y-5.0745
X3.6088Y-7.3245
X3.7712Y-8.0745
X3.865Y-5.8245
X3.89Y-3.012
X3.89Y-5.0745
X4.0525Y-6.5745
X4.1712Y-8.0745
X4.24Y-3.012
X4.24Y-3.9495
X4.24Y-5.0745
X4.265Y-5.8245
X4.4275Y-7.3245
X4.4525Y-6.5745
X4.615Y-5.8245
X4.64Y-3.012
X4.64Y-3.9495
X4.64Y-5.0745
X4.7088Y-8.0745
X4.8025Y-6.5745
X4.8275Y-7.3245
X4.99Y-3.012
X4.99Y-3.9495
X4.99Y-5.0745
X5.015Y-5.8245
X5.1087Y-8.0745
X5.1775Y-7.3245
X5.2025Y-6.5745
X5.365Y-5.8245
X5.39Y-3.012
X5.39Y-3.9495
X5.39Y-5.0745
X5.5525Y-6.5745
X5.5775Y-7.3245
X5.74Y-3.012
X5.74Y-3.9495
X5.74Y-5.0745
X5.765Y-5.8245
X5.9275Y-7.3245
X5.9525Y-6.5745
X6.115Y-5.8245
X6.14Y-3.012
X6.14Y-3.9495
X6.14Y-5.0745
X6.3025Y-6.5745
X6.3275Y-7.3245
X6.49Y-3.012
X6.49Y-3.9495
X6.49Y-5.0745
X6.515Y-5.8245
X6.6775Y-7.3245
X6.7025Y-6.5745
X6.865Y-5.8245
X6.89Y-3.012
X6.89Y-3.9495
X6.89Y-5.0745
X7.0525Y-6.5745
X7.0775Y-7.3245
X7.24Y-5.0745
X7.265Y-5.8245
X7.4275Y-7.3245
X7.4525Y-6.5745
X7.5213Y-8.0745
X7.615Y-3.012
X7.615Y-3.9495
X7.615Y-5.8245
X7.64Y-5.0745
X7.8025Y-6.5745
X7.8275Y-7.3245
X7.9212Y-8.0745
X7.99Y-5.0745
X8.015Y-3.012
X8.015Y-3.9495
X8.015Y-5.8245
X8.1775Y-7.3245
X8.2025Y-6.5745
X8.365Y-3.012
X8.365Y-3.9495
X8.365Y-5.8245
X8.39Y-5.0745
X8.5525Y-6.5745
X8.5775Y-7.3245
X8.74Y-5.0745
X8.765Y-3.012
X8.765Y-3.9495
X8.765Y-5.8245
X8.9275Y-7.3245
X8.9525Y-6.5745
X9.115Y-3.012
X9.115Y-3.9495
X9.115Y-5.8245
X9.14Y-5.0745
X9.3025Y-6.5745
X9.3275Y-7.3245
X9.49Y-5.0745
X9.515Y-3.012
X9.515Y-3.9495
X9.515Y-5.8245
X9.6775Y-7.3245
X9.7025Y-6.5745
X9.865Y-3.012
X9.865Y-3.9495
X9.865Y-5.8245
X9.89Y-5.0745
X10.0525Y-6.5745
X10.0775Y-7.3245
X10.24Y-5.0745
X10.265Y-3.012
X10.265Y-3.9495
X10.265Y-5.8245
X10.3338Y-8.0745
X10.4275Y-7.3245
X10.4525Y-6.5745
X10.615Y-5.8245
X10.64Y-5.0745
X10.7338Y-8.0745
X10.8025Y-6.5745
X10.8275Y-7.3245
X10.99Y-3.012
X10.99Y-3.9495
X10.99Y-5.0745
X11.015Y-5.8245
X11.1775Y-7.3245
X11.2025Y-6.5745
X11.2713Y-8.0745
X11.365Y-5.8245
X11.39Y-3.012
X11.39Y-3.9495
X11.39Y-5.0745
X11.5525Y-6.5745
X11.5775Y-7.3245
X11.6713Y-8.0745
X11.74Y-3.012
X11.74Y-3.9495
X11.74Y-5.0745
X11.765Y-5.8245
X11.9525Y-6.5745
X12.115Y-5.8245
X12.14Y-3.012
X12.14Y-3.9495
X12.14Y-5.0745
X12.2088Y-8.0745
X12.49Y-3.012
X12.49Y-3.9495
X12.515Y-5.8245
X12.5838Y-7.3245
X12.6088Y-8.0745
X12.7713Y-6.5745
X12.865Y-5.0745
X12.89Y-3.012
X12.89Y-3.9495
X12.9838Y-7.3245
X13.0525Y-5.8245
X13.1463Y-8.0745
X13.1713Y-6.5745
X13.24Y-3.012
X13.24Y-3.9495
X13.265Y-5.0745
X13.4525Y-5.8245
X13.5463Y-8.0745
X13.64Y-3.012
X13.64Y-3.9495
X14.1775Y-3.012
X14.1775Y-3.9495
X14.1775Y-5.0745
X14.1775Y-5.8245
X14.1775Y-8.0745
X14.5775Y-3.012
X14.5775Y-3.9495
X14.5775Y-5.0745
X14.5775Y-5.8245
X14.5775Y-8.0745
X14.9275Y-7.3245
X14.9275Y-3.012
X14.9275Y-3.9495
X14.9275Y-5.0745
X14.9275Y-5.8245
X14.9275Y-8.0745
X15.3275Y-7.3245
X15.3275Y-3.012
X15.3275Y-3.9495
X15.3275Y-5.0745
X15.3275Y-5.8245
X15.3275Y-8.0745
X15.6775Y-3.012
X15.6775Y-3.9495
X15.6775Y-5.0745
X15.6775Y-5.8245
X15.6775Y-8.0745
X16.0775Y-3.012
X16.0775Y-3.9495
X16.0775Y-5.0745
X16.0775Y-5.8245
X16.0775Y-8.0745
X16.615Y-3.012
X16.615Y-3.9495
X16.615Y-5.0745
X16.615Y-5.8245
X16.615Y-6.5745
X16.615Y-7.3245
X16.99Y-8.0745
X17.015Y-3.012
X17.015Y-3.9495
X17.015Y-5.0745
X17.015Y-5.8245
X17.015Y-6.5745
X17.015Y-7.3245
X17.365Y-3.012
X17.365Y-3.9495
X17.365Y-5.0745
X17.365Y-5.8245
X17.365Y-6.5745
X17.365Y-7.3245
X17.39Y-8.0745
X17.765Y-3.012
X17.765Y-3.9495
X17.765Y-5.0745
X17.765Y-5.8245
X17.765Y-6.5745
X17.765Y-7.3245
X18.115Y-3.012
X18.115Y-3.9495
X18.115Y-5.0745
X18.115Y-5.8245
X18.115Y-6.5745
X18.115Y-7.3245
X18.115Y-8.0745
X18.515Y-3.012
X18.515Y-3.9495
X18.515Y-5.0745
X18.515Y-5.8245
X18.515Y-6.5745
X18.515Y-7.3245
X18.515Y-8.0745
X18.865Y-3.012
X18.865Y-3.9495
X18.865Y-5.0745
X18.865Y-6.1995
X18.865Y-7.6995
X19.265Y-3.012
X19.265Y-3.9495
X19.265Y-5.0745
X19.265Y-6.1995
X19.265Y-7.6995
T4
X2.9387Y-7.5995
X3.8787Y-7.5995
X5.7527Y-8.3495
X9.6897Y-8.3495
X12.3137Y-7.5995
X12.5012Y-6.8495
X12.595Y-5.3495
X13.2538Y-7.5995
X13.4413Y-6.8495
X13.535Y-5.3495
X16.72Y-8.3495
X17.66Y-8.3495
X19.34Y-5.7295
X19.34Y-6.6695
X19.34Y-7.2295
X19.34Y-8.1695
T5
X2.9387Y-7.0007
X3.8787Y-7.0007
X5.7527Y-7.7507
X9.6897Y-7.7507
X12.3137Y-7.0007
X12.5012Y-6.2507
X12.595Y-4.7507
X13.2538Y-7.0007
X13.4413Y-6.2507
X13.535Y-4.7507
X16.72Y-7.7507
X17.66Y-7.7507
X18.7412Y-5.7295
X18.7412Y-6.6695
X18.7412Y-7.2295
X18.7412Y-8.1695
T6
X2.94Y-3.012
X2.94Y-3.9495
X2.94Y-5.0745
X3.0337Y-8.0745
X3.1275Y-5.8245
X3.2212Y-6.5745
X3.4087Y-7.3245
X3.69Y-3.012
X3.69Y-5.0745
X3.9712Y-8.0745
X4.065Y-5.8245
X4.2525Y-6.5745
X4.44Y-3.012
X4.44Y-3.9495
X4.44Y-5.0745
X4.6275Y-7.3245
X4.815Y-5.8245
X4.9087Y-8.0745
X5.0025Y-6.5745
X5.19Y-3.012
X5.19Y-3.9495
X5.19Y-5.0745
X5.3775Y-7.3245
X5.565Y-5.8245
X5.7525Y-6.5745
X5.94Y-3.012
X5.94Y-3.9495
X5.94Y-5.0745
X6.1275Y-7.3245
X6.315Y-5.8245
X6.5025Y-6.5745
X6.69Y-3.012
X6.69Y-3.9495
X6.69Y-5.0745
X6.8775Y-7.3245
X7.065Y-5.8245
X7.2525Y-6.5745
X7.44Y-5.0745
X7.6275Y-7.3245
X7.7212Y-8.0745
X7.815Y-3.012
X7.815Y-3.9495
X7.815Y-5.8245
X8.0025Y-6.5745
X8.19Y-5.0745
X8.3775Y-7.3245
X8.565Y-3.012
X8.565Y-3.9495
X8.565Y-5.8245
X8.7525Y-6.5745
X8.94Y-5.0745
X9.1275Y-7.3245
X9.315Y-3.012
X9.315Y-3.9495
X9.315Y-5.8245
X9.5025Y-6.5745
X9.69Y-5.0745
X9.8775Y-7.3245
X10.065Y-3.012
X10.065Y-3.9495
X10.065Y-5.8245
X10.2525Y-6.5745
X10.44Y-5.0745
X10.5337Y-8.0745
X10.6275Y-7.3245
X10.815Y-5.8245
X11.0025Y-6.5745
X11.19Y-3.012
X11.19Y-3.9495
X11.19Y-5.0745
X11.3775Y-7.3245
X11.4712Y-8.0745
X11.565Y-5.8245
X11.7525Y-6.5745
X11.94Y-3.012
X11.94Y-3.9495
X11.94Y-5.0745
X12.315Y-5.8245
X12.4087Y-8.0745
X12.69Y-3.012
X12.69Y-3.9495
X12.7837Y-7.3245
X12.9712Y-6.5745
X13.065Y-5.0745
X13.2525Y-5.8245
X13.3462Y-8.0745
X13.44Y-3.012
X13.44Y-3.9495
X14.3775Y-3.012
X14.3775Y-3.9495
X14.3775Y-5.0745
X14.3775Y-5.8245
X14.3775Y-8.0745
X15.1275Y-7.3245
X15.1275Y-3.012
X15.1275Y-3.9495
X15.1275Y-5.0745
X15.1275Y-5.8245
X15.1275Y-8.0745
X15.8775Y-3.012
X15.8775Y-3.9495
X15.8775Y-5.0745
X15.8775Y-5.8245
X15.8775Y-8.0745
X16.815Y-3.012
X16.815Y-3.9495
X16.815Y-5.0745
X16.815Y-5.8245
X16.815Y-6.5745
X16.815Y-7.3245
X17.19Y-8.0745
X17.565Y-3.012
X17.565Y-3.9495
X17.565Y-5.0745
X17.565Y-5.8245
X17.565Y-6.5745
X17.565Y-7.3245
X18.315Y-3.012
X18.315Y-3.9495
X18.315Y-5.0745
X18.315Y-5.8245
X18.315Y-6.5745
X18.315Y-7.3245
X18.315Y-8.0745
X19.065Y-3.012
X19.065Y-3.9495
X19.065Y-5.0745
X19.065Y-6.1995
X19.065Y-7.6995
T2
G00X2.94Y-2.8639
M15
G01X2.94Y-2.7851
M16
G05
G00X2.94Y-3.7226
M15
G01X2.94Y-3.8014
M16
G05
G00X2.94Y-4.9264
M15
G01X2.94Y-4.8476
M16
G05
G00X3.0337Y-7.9264
M15
G01X3.0337Y-7.8476
M16
G05
G00X3.1275Y-5.5976
M15
G01X3.1275Y-5.6764
M16
G05
G00X3.2212Y-6.4264
M15
G01X3.2212Y-6.3476
M16
G05
G00X3.4087Y-7.0976
M15
G01X3.4087Y-7.1764
M16
G05
G00X3.69Y-4.9264
M15
G01X3.69Y-4.8476
M16
G05
G00X3.69Y-2.8639
M15
G01X3.69Y-2.7851
M16
G05
G00X3.9712Y-7.9264
M15
G01X3.9712Y-7.8476
M16
G05
G00X4.065Y-5.5976
M15
G01X4.065Y-5.6764
M16
G05
G00X4.2525Y-6.4264
M15
G01X4.2525Y-6.3476
M16
G05
G00X4.44Y-2.8639
M15
G01X4.44Y-2.7851
M16
G05
G00X4.44Y-3.7226
M15
G01X4.44Y-3.8014
M16
G05
G00X4.44Y-4.9264
M15
G01X4.44Y-4.8476
M16
G05
G00X4.6275Y-7.0976
M15
G01X4.6275Y-7.1764
M16
G05
G00X4.815Y-5.5976
M15
G01X4.815Y-5.6764
M16
G05
G00X4.9087Y-7.9264
M15
G01X4.9087Y-7.8476
M16
G05
G00X5.0025Y-6.4264
M15
G01X5.0025Y-6.3476
M16
G05
G00X5.19Y-2.8639
M15
G01X5.19Y-2.7851
M16
G05
G00X5.19Y-3.7226
M15
G01X5.19Y-3.8014
M16
G05
G00X5.19Y-4.9264
M15
G01X5.19Y-4.8476
M16
G05
G00X5.3775Y-7.0976
M15
G01X5.3775Y-7.1764
M16
G05
G00X5.565Y-5.5976
M15
G01X5.565Y-5.6764
M16
G05
G00X5.7525Y-6.4264
M15
G01X5.7525Y-6.3476
M16
G05
G00X5.94Y-2.8639
M15
G01X5.94Y-2.7851
M16
G05
G00X5.94Y-3.7226
M15
G01X5.94Y-3.8014
M16
G05
G00X5.94Y-4.9264
M15
G01X5.94Y-4.8476
M16
G05
G00X6.1275Y-7.0976
M15
G01X6.1275Y-7.1764
M16
G05
G00X6.315Y-5.5976
M15
G01X6.315Y-5.6764
M16
G05
G00X6.5025Y-6.4264
M15
G01X6.5025Y-6.3476
M16
G05
G00X6.69Y-2.8639
M15
G01X6.69Y-2.7851
M16
G05
G00X6.69Y-3.7226
M15
G01X6.69Y-3.8014
M16
G05
G00X6.69Y-4.9264
M15
G01X6.69Y-4.8476
M16
G05
G00X6.8775Y-7.0976
M15
G01X6.8775Y-7.1764
M16
G05
G00X7.065Y-5.5976
M15
G01X7.065Y-5.6764
M16
G05
G00X7.2525Y-6.4264
M15
G01X7.2525Y-6.3476
M16
G05
G00X7.44Y-4.9264
M15
G01X7.44Y-4.8476
M16
G05
G00X7.6275Y-7.0976
M15
G01X7.6275Y-7.1764
M16
G05
G00X7.7212Y-7.9264
M15
G01X7.7212Y-7.8476
M16
G05
G00X7.815Y-2.8639
M15
G01X7.815Y-2.7851
M16
G05
G00X7.815Y-3.7226
M15
G01X7.815Y-3.8014
M16
G05
G00X7.815Y-5.5976
M15
G01X7.815Y-5.6764
M16
G05
G00X8.0025Y-6.4264
M15
G01X8.0025Y-6.3476
M16
G05
G00X8.19Y-4.9264
M15
G01X8.19Y-4.8476
M16
G05
G00X8.3775Y-7.0976
M15
G01X8.3775Y-7.1764
M16
G05
G00X8.565Y-2.8639
M15
G01X8.565Y-2.7851
M16
G05
G00X8.565Y-3.7226
M15
G01X8.565Y-3.8014
M16
G05
G00X8.565Y-5.5976
M15
G01X8.565Y-5.6764
M16
G05
G00X8.7525Y-6.4264
M15
G01X8.7525Y-6.3476
M16
G05
G00X8.94Y-4.9264
M15
G01X8.94Y-4.8476
M16
G05
G00X9.1275Y-7.0976
M15
G01X9.1275Y-7.1764
M16
G05
G00X9.315Y-2.8639
M15
G01X9.315Y-2.7851
M16
G05
G00X9.315Y-3.7226
M15
G01X9.315Y-3.8014
M16
G05
G00X9.315Y-5.5976
M15
G01X9.315Y-5.6764
M16
G05
G00X9.5025Y-6.4264
M15
G01X9.5025Y-6.3476
M16
G05
G00X9.69Y-4.9264
M15
G01X9.69Y-4.8476
M16
G05
G00X9.8775Y-7.0976
M15
G01X9.8775Y-7.1764
M16
G05
G00X10.065Y-2.8639
M15
G01X10.065Y-2.7851
M16
G05
G00X10.065Y-3.7226
M15
G01X10.065Y-3.8014
M16
G05
G00X10.065Y-5.5976
M15
G01X10.065Y-5.6764
M16
G05
G00X10.2525Y-6.4264
M15
G01X10.2525Y-6.3476
M16
G05
G00X10.44Y-4.9264
M15
G01X10.44Y-4.8476
M16
G05
G00X10.5337Y-7.9264
M15
G01X10.5337Y-7.8476
M16
G05
G00X10.6275Y-7.0976
M15
G01X10.6275Y-7.1764
M16
G05
G00X10.815Y-5.5976
M15
G01X10.815Y-5.6764
M16
G05
G00X11.0025Y-6.4264
M15
G01X11.0025Y-6.3476
M16
G05
G00X11.19Y-2.8639
M15
G01X11.19Y-2.7851
M16
G05
G00X11.19Y-3.7226
M15
G01X11.19Y-3.8014
M16
G05
G00X11.19Y-4.9264
M15
G01X11.19Y-4.8476
M16
G05
G00X11.3775Y-7.0976
M15
G01X11.3775Y-7.1764
M16
G05
G00X11.4712Y-7.9264
M15
G01X11.4712Y-7.8476
M16
G05
G00X11.565Y-5.5976
M15
G01X11.565Y-5.6764
M16
G05
G00X11.7525Y-6.4264
M15
G01X11.7525Y-6.3476
M16
G05
G00X11.94Y-2.8639
M15
G01X11.94Y-2.7851
M16
G05
G00X11.94Y-3.7226
M15
G01X11.94Y-3.8014
M16
G05
G00X11.94Y-4.9264
M15
G01X11.94Y-4.8476
M16
G05
G00X12.315Y-5.5976
M15
G01X12.315Y-5.6764
M16
G05
G00X12.4087Y-7.9264
M15
G01X12.4087Y-7.8476
M16
G05
G00X12.69Y-2.8639
M15
G01X12.69Y-2.7851
M16
G05
G00X12.69Y-3.7226
M15
G01X12.69Y-3.8014
M16
G05
G00X12.7837Y-7.0976
M15
G01X12.7837Y-7.1764
M16
G05
G00X12.9712Y-6.4264
M15
G01X12.9712Y-6.3476
M16
G05
G00X13.065Y-4.9264
M15
G01X13.065Y-4.8476
M16
G05
G00X13.2525Y-5.5976
M15
G01X13.2525Y-5.6764
M16
G05
G00X13.3462Y-7.9264
M15
G01X13.3462Y-7.8476
M16
G05
G00X13.44Y-2.8639
M15
G01X13.44Y-2.7851
M16
G05
G00X13.44Y-3.7226
M15
G01X13.44Y-3.8014
M16
G05
G00X14.3775Y-2.8639
M15
G01X14.3775Y-2.7851
M16
G05
G00X14.3775Y-3.7226
M15
G01X14.3775Y-3.8014
M16
G05
G00X14.3775Y-4.9264
M15
G01X14.3775Y-4.8476
M16
G05
G00X14.3775Y-5.5976
M15
G01X14.3775Y-5.6764
M16
G05
G00X14.3775Y-7.9264
M15
G01X14.3775Y-7.8476
M16
G05
G00X15.1275Y-2.8639
M15
G01X15.1275Y-2.7851
M16
G05
G00X15.1275Y-3.7226
M15
G01X15.1275Y-3.8014
M16
G05
G00X15.1275Y-4.9264
M15
G01X15.1275Y-4.8476
M16
G05
G00X15.1275Y-5.5976
M15
G01X15.1275Y-5.6764
M16
G05
G00X15.1275Y-7.0976
M15
G01X15.1275Y-7.1764
M16
G05
G00X15.1275Y-7.9264
M15
G01X15.1275Y-7.8476
M16
G05
G00X15.8775Y-2.8639
M15
G01X15.8775Y-2.7851
M16
G05
G00X15.8775Y-3.7226
M15
G01X15.8775Y-3.8014
M16
G05
G00X15.8775Y-4.9264
M15
G01X15.8775Y-4.8476
M16
G05
G00X15.8775Y-5.5976
M15
G01X15.8775Y-5.6764
M16
G05
G00X15.8775Y-7.9264
M15
G01X15.8775Y-7.8476
M16
G05
G00X16.815Y-2.8639
M15
G01X16.815Y-2.7851
M16
G05
G00X16.815Y-3.7226
M15
G01X16.815Y-3.8014
M16
G05
G00X16.815Y-4.9264
M15
G01X16.815Y-4.8476
M16
G05
G00X16.815Y-5.5976
M15
G01X16.815Y-5.6764
M16
G05
G00X16.815Y-6.4264
M15
G01X16.815Y-6.3476
M16
G05
G00X16.815Y-7.0976
M15
G01X16.815Y-7.1764
M16
G05
G00X17.19Y-7.9264
M15
G01X17.19Y-7.8476
M16
G05
G00X17.565Y-2.8639
M15
G01X17.565Y-2.7851
M16
G05
G00X17.565Y-3.7226
M15
G01X17.565Y-3.8014
M16
G05
G00X17.565Y-4.9264
M15
G01X17.565Y-4.8476
M16
G05
G00X17.565Y-5.5976
M15
G01X17.565Y-5.6764
M16
G05
G00X17.565Y-6.4264
M15
G01X17.565Y-6.3476
M16
G05
G00X17.565Y-7.0976
M15
G01X17.565Y-7.1764
M16
G05
G00X18.315Y-2.8639
M15
G01X18.315Y-2.7851
M16
G05
G00X18.315Y-3.7226
M15
G01X18.315Y-3.8014
M16
G05
G00X18.315Y-4.9264
M15
G01X18.315Y-4.8476
M16
G05
G00X18.315Y-5.5976
M15
G01X18.315Y-5.6764
M16
G05
G00X18.315Y-6.4264
M15
G01X18.315Y-6.3476
M16
G05
G00X18.315Y-7.0976
M15
G01X18.315Y-7.1764
M16
G05
G00X18.315Y-7.9264
M15
G01X18.315Y-7.8476
M16
G05
G00X19.065Y-2.8639
M15
G01X19.065Y-2.7851
M16
G05
G00X19.065Y-3.7226
M15
G01X19.065Y-3.8014
M16
G05
G00X19.065Y-4.9264
M15
G01X19.065Y-4.8476
M16
G05
G00X19.065Y-5.9726
M15
G01X19.065Y-6.0514
M16
G05
G00X19.065Y-7.4726
M15
G01X19.065Y-7.5514
M16
G05
T0
M30
