%TF.GenerationSoftware,KiCad,Pcbnew,7.0.5*%
%TF.CreationDate,2023-06-20T21:05:11-04:00*%
%TF.ProjectId,100p-keebored,31303070-2d6b-4656-9562-6f7265642e6b,rev?*%
%TF.SameCoordinates,Original*%
%TF.FileFunction,Soldermask,Top*%
%TF.FilePolarity,Negative*%
%FSLAX46Y46*%
G04 Gerber Fmt 4.6, Leading zero omitted, Abs format (unit mm)*
G04 Created by KiCad (PCBNEW 7.0.5) date 2023-06-20 21:05:11*
%MOMM*%
%LPD*%
G01*
G04 APERTURE LIST*
%ADD10R,0.700000X0.700000*%
%ADD11C,1.750000*%
%ADD12C,3.100000*%
%ADD13C,4.000000*%
%ADD14C,3.500000*%
%ADD15R,2.000000X2.000000*%
%ADD16C,2.000000*%
%ADD17R,2.000000X3.200000*%
%ADD18C,3.048000*%
%ADD19C,3.987800*%
%ADD20R,1.800000X1.100000*%
%ADD21R,1.700000X1.700000*%
%ADD22C,1.700000*%
%ADD23O,1.500000X3.500000*%
%ADD24C,0.650000*%
%ADD25O,1.000000X1.600000*%
%ADD26O,1.000000X2.100000*%
G04 APERTURE END LIST*
D10*
%TO.C,U3*%
X454760920Y-114054832D03*
X454760920Y-115154832D03*
X456590920Y-115154832D03*
X456590920Y-114054832D03*
%TD*%
%TO.C,U4*%
X437540936Y-114054832D03*
X437540936Y-115154832D03*
X435710936Y-115154832D03*
X435710936Y-114054832D03*
%TD*%
%TO.C,U2*%
X473810904Y-114054832D03*
X473810904Y-115154832D03*
X475640904Y-115154832D03*
X475640904Y-114054832D03*
%TD*%
D11*
%TO.C,SW10*%
X260731000Y-76504800D03*
D12*
X259461000Y-79044800D03*
D13*
X255651000Y-76504800D03*
D12*
X253111000Y-81584800D03*
D11*
X250571000Y-76504800D03*
%TD*%
%TO.C,SW127*%
X408368500Y-205092300D03*
D12*
X407098500Y-207632300D03*
D13*
X403288500Y-205092300D03*
D12*
X400748500Y-210172300D03*
D11*
X398208500Y-205092300D03*
%TD*%
%TO.C,SW96*%
X334549750Y-166992300D03*
D12*
X333279750Y-169532300D03*
D13*
X329469750Y-166992300D03*
D12*
X326929750Y-172072300D03*
D11*
X324389750Y-166992300D03*
%TD*%
D14*
%TO.C,*%
X327088528Y-147942304D03*
%TD*%
D11*
%TO.C,SW78*%
X389318500Y-147942300D03*
D12*
X388048500Y-150482300D03*
D13*
X384238500Y-147942300D03*
D12*
X381698500Y-153022300D03*
D11*
X379158500Y-147942300D03*
%TD*%
%TO.C,SW115*%
X470281000Y-186042300D03*
D12*
X469011000Y-188582300D03*
D13*
X465201000Y-186042300D03*
D12*
X462661000Y-191122300D03*
D11*
X460121000Y-186042300D03*
%TD*%
%TO.C,SW73*%
X279781000Y-147942300D03*
D12*
X278511000Y-150482300D03*
D13*
X274701000Y-147942300D03*
D12*
X272161000Y-153022300D03*
D11*
X269621000Y-147942300D03*
%TD*%
%TO.C,SW50*%
X232156000Y-128892300D03*
D12*
X230886000Y-131432300D03*
D13*
X227076000Y-128892300D03*
D12*
X224536000Y-133972300D03*
D11*
X221996000Y-128892300D03*
%TD*%
D15*
%TO.C,SW130*%
X72176000Y-84004800D03*
D16*
X77176000Y-84004800D03*
X74676000Y-84004800D03*
D17*
X69076000Y-76504800D03*
X80276000Y-76504800D03*
D16*
X77176000Y-69504800D03*
X72176000Y-69504800D03*
%TD*%
D11*
%TO.C,SW69*%
X203581000Y-147942300D03*
D12*
X202311000Y-150482300D03*
D13*
X198501000Y-147942300D03*
D12*
X195961000Y-153022300D03*
D11*
X193421000Y-147942300D03*
%TD*%
%TO.C,SW19*%
X451231000Y-76504800D03*
D12*
X449961000Y-79044800D03*
D13*
X446151000Y-76504800D03*
D12*
X443611000Y-81584800D03*
D11*
X441071000Y-76504800D03*
%TD*%
%TO.C,SW125*%
X370268500Y-205092300D03*
D12*
X368998500Y-207632300D03*
D13*
X365188500Y-205092300D03*
D12*
X362648500Y-210172300D03*
D11*
X360108500Y-205092300D03*
%TD*%
%TO.C,SW76*%
X341693500Y-147942300D03*
D12*
X340423500Y-150482300D03*
D13*
X336613500Y-147942300D03*
D12*
X334073500Y-153022300D03*
D11*
X331533500Y-147942300D03*
%TD*%
%TO.C,SW4*%
X136906000Y-76504800D03*
D12*
X135636000Y-79044800D03*
D13*
X131826000Y-76504800D03*
D12*
X129286000Y-81584800D03*
D11*
X126746000Y-76504800D03*
%TD*%
D14*
%TO.C,*%
X489013392Y-90792352D03*
%TD*%
D11*
%TO.C,SW51*%
X251206000Y-128892300D03*
D12*
X249936000Y-131432300D03*
D13*
X246126000Y-128892300D03*
D12*
X243586000Y-133972300D03*
D11*
X241046000Y-128892300D03*
%TD*%
%TO.C,SW12*%
X308356000Y-76504800D03*
D12*
X307086000Y-79044800D03*
D13*
X303276000Y-76504800D03*
D12*
X300736000Y-81584800D03*
D11*
X298196000Y-76504800D03*
%TD*%
%TO.C,SW71*%
X241681000Y-147942300D03*
D12*
X240411000Y-150482300D03*
D13*
X236601000Y-147942300D03*
D12*
X234061000Y-153022300D03*
D11*
X231521000Y-147942300D03*
%TD*%
%TO.C,SW126*%
X389318500Y-205092300D03*
D12*
X388048500Y-207632300D03*
D13*
X384238500Y-205092300D03*
D12*
X381698500Y-210172300D03*
D11*
X379158500Y-205092300D03*
%TD*%
%TO.C,SW119*%
X129762250Y-205092300D03*
D12*
X128492250Y-207632300D03*
D13*
X124682250Y-205092300D03*
D12*
X122142250Y-210172300D03*
D11*
X119602250Y-205092300D03*
%TD*%
%TO.C,SW107*%
X236918500Y-186042300D03*
D12*
X235648500Y-188582300D03*
D13*
X231838500Y-186042300D03*
D12*
X229298500Y-191122300D03*
D11*
X226758500Y-186042300D03*
%TD*%
%TO.C,SW27*%
X203581000Y-100317300D03*
D12*
X202311000Y-102857300D03*
D13*
X198501000Y-100317300D03*
D12*
X195961000Y-105397300D03*
D11*
X193421000Y-100317300D03*
%TD*%
%TO.C,SW48*%
X194056000Y-128892300D03*
D12*
X192786000Y-131432300D03*
D13*
X188976000Y-128892300D03*
D12*
X186436000Y-133972300D03*
D11*
X183896000Y-128892300D03*
%TD*%
%TO.C,SW81*%
X451231000Y-147942300D03*
D12*
X449961000Y-150482300D03*
D13*
X446151000Y-147942300D03*
D12*
X443611000Y-153022300D03*
D11*
X441071000Y-147942300D03*
%TD*%
%TO.C,SW24*%
X136906000Y-100317300D03*
D12*
X135636000Y-102857300D03*
D13*
X131826000Y-100317300D03*
D12*
X129286000Y-105397300D03*
D11*
X126746000Y-100317300D03*
%TD*%
%TO.C,SW62*%
X489331000Y-128892300D03*
D12*
X488061000Y-131432300D03*
D13*
X484251000Y-128892300D03*
D12*
X481711000Y-133972300D03*
D11*
X479171000Y-128892300D03*
%TD*%
%TO.C,SW23*%
X117856000Y-100317300D03*
D12*
X116586000Y-102857300D03*
D13*
X112776000Y-100317300D03*
D12*
X110236000Y-105397300D03*
D11*
X107696000Y-100317300D03*
%TD*%
%TO.C,SW88*%
X170243500Y-166992300D03*
D12*
X168973500Y-169532300D03*
D13*
X165163500Y-166992300D03*
D12*
X162623500Y-172072300D03*
D11*
X160083500Y-166992300D03*
%TD*%
%TO.C,SW105*%
X198818500Y-186042300D03*
D12*
X197548500Y-188582300D03*
D13*
X193738500Y-186042300D03*
D12*
X191198500Y-191122300D03*
D11*
X188658500Y-186042300D03*
%TD*%
%TO.C,SW8*%
X222631000Y-76504800D03*
D12*
X221361000Y-79044800D03*
D13*
X217551000Y-76504800D03*
D12*
X215011000Y-81584800D03*
D11*
X212471000Y-76504800D03*
%TD*%
%TO.C,SW117*%
X82137250Y-205092300D03*
D12*
X80867250Y-207632300D03*
D13*
X77057250Y-205092300D03*
D12*
X74517250Y-210172300D03*
D11*
X71977250Y-205092300D03*
%TD*%
%TO.C,SW79*%
X408368500Y-147942300D03*
D12*
X407098500Y-150482300D03*
D13*
X403288500Y-147942300D03*
D12*
X400748500Y-153022300D03*
D11*
X398208500Y-147942300D03*
%TD*%
D14*
%TO.C,*%
X179451152Y-205092256D03*
%TD*%
D11*
%TO.C,SW66*%
X146431000Y-147942300D03*
D12*
X145161000Y-150482300D03*
D13*
X141351000Y-147942300D03*
D12*
X138811000Y-153022300D03*
D11*
X136271000Y-147942300D03*
%TD*%
%TO.C,SW30*%
X260731000Y-100317300D03*
D12*
X259461000Y-102857300D03*
D13*
X255651000Y-100317300D03*
D12*
X253111000Y-105397300D03*
D11*
X250571000Y-100317300D03*
%TD*%
%TO.C,SW87*%
X151193500Y-166992300D03*
D12*
X149923500Y-169532300D03*
D13*
X146113500Y-166992300D03*
D12*
X143573500Y-172072300D03*
D11*
X141033500Y-166992300D03*
%TD*%
D14*
%TO.C,*%
X84201232Y-90792352D03*
%TD*%
D11*
%TO.C,SW68*%
X184531000Y-147942300D03*
D12*
X183261000Y-150482300D03*
D13*
X179451000Y-147942300D03*
D12*
X176911000Y-153022300D03*
D11*
X174371000Y-147942300D03*
%TD*%
%TO.C,SW15*%
X370268500Y-76504800D03*
D12*
X368998500Y-79044800D03*
D13*
X365188500Y-76504800D03*
D12*
X362648500Y-81584800D03*
D11*
X360108500Y-76504800D03*
%TD*%
%TO.C,SW25*%
X155956000Y-100317300D03*
D12*
X154686000Y-102857300D03*
D13*
X150876000Y-100317300D03*
D12*
X148336000Y-105397300D03*
D11*
X145796000Y-100317300D03*
%TD*%
%TO.C,SW89*%
X189293500Y-166992300D03*
D12*
X188023500Y-169532300D03*
D13*
X184213500Y-166992300D03*
D12*
X181673500Y-172072300D03*
D11*
X179133500Y-166992300D03*
%TD*%
%TO.C,SW39*%
X451231000Y-100317300D03*
D12*
X449961000Y-102857300D03*
D13*
X446151000Y-100317300D03*
D12*
X443611000Y-105397300D03*
D11*
X441071000Y-100317300D03*
%TD*%
%TO.C,SW102*%
X141668500Y-186042300D03*
D12*
X140398500Y-188582300D03*
D13*
X136588500Y-186042300D03*
D12*
X134048500Y-191122300D03*
D11*
X131508500Y-186042300D03*
%TD*%
%TO.C,SW70*%
X222631000Y-147942300D03*
D12*
X221361000Y-150482300D03*
D13*
X217551000Y-147942300D03*
D12*
X215011000Y-153022300D03*
D11*
X212471000Y-147942300D03*
%TD*%
D14*
%TO.C,*%
X274701072Y-100317344D03*
%TD*%
D11*
%TO.C,SW77*%
X370268500Y-147942300D03*
D12*
X368998500Y-150482300D03*
D13*
X365188500Y-147942300D03*
D12*
X362648500Y-153022300D03*
D11*
X360108500Y-147942300D03*
%TD*%
%TO.C,SW59*%
X432181000Y-128892300D03*
D12*
X430911000Y-131432300D03*
D13*
X427101000Y-128892300D03*
D12*
X424561000Y-133972300D03*
D11*
X422021000Y-128892300D03*
%TD*%
D18*
%TO.C,REF\u002A\u002A*%
X491236000Y-183629300D03*
D19*
X476026000Y-183629300D03*
D18*
X491236000Y-207505300D03*
D19*
X476026000Y-207505300D03*
%TD*%
D11*
%TO.C,SW114*%
X451231000Y-186042300D03*
D12*
X449961000Y-188582300D03*
D13*
X446151000Y-186042300D03*
D12*
X443611000Y-191122300D03*
D11*
X441071000Y-186042300D03*
%TD*%
%TO.C,SW11*%
X289306000Y-76504800D03*
D12*
X288036000Y-79044800D03*
D13*
X284226000Y-76504800D03*
D12*
X281686000Y-81584800D03*
D11*
X279146000Y-76504800D03*
%TD*%
%TO.C,SW22*%
X79756000Y-100317300D03*
D12*
X78486000Y-102857300D03*
D13*
X74676000Y-100317300D03*
D12*
X72136000Y-105397300D03*
D11*
X69596000Y-100317300D03*
%TD*%
%TO.C,SW61*%
X470281000Y-128892300D03*
D12*
X469011000Y-131432300D03*
D13*
X465201000Y-128892300D03*
D12*
X462661000Y-133972300D03*
D11*
X460121000Y-128892300D03*
%TD*%
%TO.C,SW6*%
X175006000Y-76504800D03*
D12*
X173736000Y-79044800D03*
D13*
X169926000Y-76504800D03*
D12*
X167386000Y-81584800D03*
D11*
X164846000Y-76504800D03*
%TD*%
%TO.C,SW97*%
X432181000Y-166992300D03*
D12*
X430911000Y-169532300D03*
D13*
X427101000Y-166992300D03*
D12*
X424561000Y-172072300D03*
D11*
X422021000Y-166992300D03*
%TD*%
%TO.C,SW21*%
X489331000Y-76504800D03*
D12*
X488061000Y-79044800D03*
D13*
X484251000Y-76504800D03*
D12*
X481711000Y-81584800D03*
D11*
X479171000Y-76504800D03*
%TD*%
%TO.C,SW29*%
X241681000Y-100317300D03*
D12*
X240411000Y-102857300D03*
D13*
X236601000Y-100317300D03*
D12*
X234061000Y-105397300D03*
D11*
X231521000Y-100317300D03*
%TD*%
%TO.C,SW63*%
X84518500Y-147942300D03*
D12*
X83248500Y-150482300D03*
D13*
X79438500Y-147942300D03*
D12*
X76898500Y-153022300D03*
D11*
X74358500Y-147942300D03*
%TD*%
%TO.C,SW124*%
X344074750Y-205092300D03*
D12*
X342804750Y-207632300D03*
D13*
X338994750Y-205092300D03*
D12*
X336454750Y-210172300D03*
D11*
X333914750Y-205092300D03*
%TD*%
%TO.C,SW17*%
X408368500Y-76504800D03*
D12*
X407098500Y-79044800D03*
D13*
X403288500Y-76504800D03*
D12*
X400748500Y-81584800D03*
D11*
X398208500Y-76504800D03*
%TD*%
%TO.C,SW49*%
X213106000Y-128892300D03*
D12*
X211836000Y-131432300D03*
D13*
X208026000Y-128892300D03*
D12*
X205486000Y-133972300D03*
D11*
X202946000Y-128892300D03*
%TD*%
D14*
%TO.C,*%
X327088528Y-205092256D03*
%TD*%
D11*
%TO.C,SW122*%
X296449750Y-205092300D03*
D12*
X295179750Y-207632300D03*
D13*
X291369750Y-205092300D03*
D12*
X288829750Y-210172300D03*
D11*
X286289750Y-205092300D03*
%TD*%
%TO.C,SW16*%
X389318500Y-76504800D03*
D12*
X388048500Y-79044800D03*
D13*
X384238500Y-76504800D03*
D12*
X381698500Y-81584800D03*
D11*
X379158500Y-76504800D03*
%TD*%
%TO.C,SW120*%
X201199750Y-205092300D03*
D12*
X199929750Y-207632300D03*
D13*
X196119750Y-205092300D03*
D12*
X193579750Y-210172300D03*
D11*
X191039750Y-205092300D03*
%TD*%
D18*
%TO.C,REF\u002A\u002A*%
X491236000Y-145529300D03*
D19*
X476026000Y-145529300D03*
D18*
X491236000Y-169405300D03*
D19*
X476026000Y-169405300D03*
%TD*%
D11*
%TO.C,SW26*%
X175006000Y-100317300D03*
D12*
X173736000Y-102857300D03*
D13*
X169926000Y-100317300D03*
D12*
X167386000Y-105397300D03*
D11*
X164846000Y-100317300D03*
%TD*%
D18*
%TO.C,REF\u002A\u002A*%
X246119600Y-212077156D03*
D19*
X246119600Y-196867156D03*
D18*
X146119600Y-212077156D03*
D19*
X146119600Y-196867156D03*
%TD*%
D11*
%TO.C,SW82*%
X470281000Y-147942300D03*
D12*
X469011000Y-150482300D03*
D13*
X465201000Y-147942300D03*
D12*
X462661000Y-153022300D03*
D11*
X460121000Y-147942300D03*
%TD*%
%TO.C,SW58*%
X408368500Y-128892300D03*
D12*
X407098500Y-131432300D03*
D13*
X403288500Y-128892300D03*
D12*
X400748500Y-133972300D03*
D11*
X398208500Y-128892300D03*
%TD*%
%TO.C,SW86*%
X132143500Y-166992300D03*
D12*
X130873500Y-169532300D03*
D13*
X127063500Y-166992300D03*
D12*
X124523500Y-172072300D03*
D11*
X121983500Y-166992300D03*
%TD*%
%TO.C,SW84*%
X86899750Y-166992300D03*
D12*
X85629750Y-169532300D03*
D13*
X81819750Y-166992300D03*
D12*
X79279750Y-172072300D03*
D11*
X76739750Y-166992300D03*
%TD*%
%TO.C,SW37*%
X408368500Y-100317300D03*
D12*
X407098500Y-102857300D03*
D13*
X403288500Y-100317300D03*
D12*
X400748500Y-105397300D03*
D11*
X398208500Y-100317300D03*
%TD*%
%TO.C,SW90*%
X208343500Y-166992300D03*
D12*
X207073500Y-169532300D03*
D13*
X203263500Y-166992300D03*
D12*
X200723500Y-172072300D03*
D11*
X198183500Y-166992300D03*
%TD*%
%TO.C,SW9*%
X241681000Y-76504800D03*
D12*
X240411000Y-79044800D03*
D13*
X236601000Y-76504800D03*
D12*
X234061000Y-81584800D03*
D11*
X231521000Y-76504800D03*
%TD*%
%TO.C,SW18*%
X432181000Y-76504800D03*
D12*
X430911000Y-79044800D03*
D13*
X427101000Y-76504800D03*
D12*
X424561000Y-81584800D03*
D11*
X422021000Y-76504800D03*
%TD*%
%TO.C,SW35*%
X370268500Y-100317300D03*
D12*
X368998500Y-102857300D03*
D13*
X365188500Y-100317300D03*
D12*
X362648500Y-105397300D03*
D11*
X360108500Y-100317300D03*
%TD*%
D18*
%TO.C,REF\u002A\u002A*%
X343789000Y-135877300D03*
D19*
X343789000Y-120667300D03*
D18*
X319913000Y-135877300D03*
D19*
X319913000Y-120667300D03*
%TD*%
D11*
%TO.C,SW34*%
X346456000Y-100317300D03*
D12*
X345186000Y-102857300D03*
D13*
X341376000Y-100317300D03*
D12*
X338836000Y-105397300D03*
D11*
X336296000Y-100317300D03*
%TD*%
%TO.C,SW121*%
X272637250Y-205092300D03*
D12*
X271367250Y-207632300D03*
D13*
X267557250Y-205092300D03*
D12*
X265017250Y-210172300D03*
D11*
X262477250Y-205092300D03*
%TD*%
%TO.C,SW46*%
X155956000Y-128892300D03*
D12*
X154686000Y-131432300D03*
D13*
X150876000Y-128892300D03*
D12*
X148336000Y-133972300D03*
D11*
X145796000Y-128892300D03*
%TD*%
%TO.C,SW74*%
X298831000Y-147942300D03*
D12*
X297561000Y-150482300D03*
D13*
X293751000Y-147942300D03*
D12*
X291211000Y-153022300D03*
D11*
X288671000Y-147942300D03*
%TD*%
D18*
%TO.C,REF\u002A\u002A*%
X341407750Y-173977300D03*
D19*
X341407750Y-158767300D03*
D18*
X317531750Y-173977300D03*
D19*
X317531750Y-158767300D03*
%TD*%
D18*
%TO.C,REF\u002A\u002A*%
X448564000Y-212077300D03*
D19*
X448564000Y-196867300D03*
D18*
X424688000Y-212077300D03*
D19*
X424688000Y-196867300D03*
%TD*%
D11*
%TO.C,SW47*%
X175006000Y-128892300D03*
D12*
X173736000Y-131432300D03*
D13*
X169926000Y-128892300D03*
D12*
X167386000Y-133972300D03*
D11*
X164846000Y-128892300D03*
%TD*%
%TO.C,SW80*%
X432181000Y-147942300D03*
D12*
X430911000Y-150482300D03*
D13*
X427101000Y-147942300D03*
D12*
X424561000Y-153022300D03*
D11*
X422021000Y-147942300D03*
%TD*%
%TO.C,SW32*%
X308356000Y-100317300D03*
D12*
X307086000Y-102857300D03*
D13*
X303276000Y-100317300D03*
D12*
X300736000Y-105397300D03*
D11*
X298196000Y-100317300D03*
%TD*%
%TO.C,SW110*%
X294068500Y-186042300D03*
D12*
X292798500Y-188582300D03*
D13*
X288988500Y-186042300D03*
D12*
X286448500Y-191122300D03*
D11*
X283908500Y-186042300D03*
%TD*%
D14*
%TO.C,*%
X88963728Y-205092256D03*
%TD*%
D11*
%TO.C,SW129*%
X470281000Y-205092300D03*
D12*
X469011000Y-207632300D03*
D13*
X465201000Y-205092300D03*
D12*
X462661000Y-210172300D03*
D11*
X460121000Y-205092300D03*
%TD*%
%TO.C,SW123*%
X320262250Y-205092300D03*
D12*
X318992250Y-207632300D03*
D13*
X315182250Y-205092300D03*
D12*
X312642250Y-210172300D03*
D11*
X310102250Y-205092300D03*
%TD*%
%TO.C,SW98*%
X451231000Y-166992300D03*
D12*
X449961000Y-169532300D03*
D13*
X446151000Y-166992300D03*
D12*
X443611000Y-172072300D03*
D11*
X441071000Y-166992300D03*
%TD*%
D18*
%TO.C,REF\u002A\u002A*%
X98520192Y-193027172D03*
D19*
X98520192Y-177817172D03*
D18*
X74644192Y-193027172D03*
D19*
X74644192Y-177817172D03*
%TD*%
D18*
%TO.C,REF\u002A\u002A*%
X336645250Y-193027300D03*
D19*
X336645250Y-177817300D03*
D18*
X312769250Y-193027300D03*
D19*
X312769250Y-177817300D03*
%TD*%
D11*
%TO.C,SW95*%
X303593500Y-166992300D03*
D12*
X302323500Y-169532300D03*
D13*
X298513500Y-166992300D03*
D12*
X295973500Y-172072300D03*
D11*
X293433500Y-166992300D03*
%TD*%
%TO.C,SW14*%
X346456000Y-76504800D03*
D12*
X345186000Y-79044800D03*
D13*
X341376000Y-76504800D03*
D12*
X338836000Y-81584800D03*
D11*
X336296000Y-76504800D03*
%TD*%
%TO.C,SW57*%
X389318500Y-128892300D03*
D12*
X388048500Y-131432300D03*
D13*
X384238500Y-128892300D03*
D12*
X381698500Y-133972300D03*
D11*
X379158500Y-128892300D03*
%TD*%
%TO.C,SW104*%
X179768500Y-186042300D03*
D12*
X178498500Y-188582300D03*
D13*
X174688500Y-186042300D03*
D12*
X172148500Y-191122300D03*
D11*
X169608500Y-186042300D03*
%TD*%
D14*
%TO.C,*%
X455675920Y-205092256D03*
%TD*%
D11*
%TO.C,SW13*%
X327406000Y-76504800D03*
D12*
X326136000Y-79044800D03*
D13*
X322326000Y-76504800D03*
D12*
X319786000Y-81584800D03*
D11*
X317246000Y-76504800D03*
%TD*%
%TO.C,SW112*%
X389318480Y-186042272D03*
D12*
X388048480Y-188582272D03*
D13*
X384238480Y-186042272D03*
D12*
X381698480Y-191122272D03*
D11*
X379158480Y-186042272D03*
%TD*%
%TO.C,SW100*%
X91662250Y-186042300D03*
D12*
X90392250Y-188582300D03*
D13*
X86582250Y-186042300D03*
D12*
X84042250Y-191122300D03*
D11*
X81502250Y-186042300D03*
%TD*%
D14*
%TO.C,*%
X93726224Y-166992288D03*
%TD*%
D11*
%TO.C,SW99*%
X470281000Y-166992300D03*
D12*
X469011000Y-169532300D03*
D13*
X465201000Y-166992300D03*
D12*
X462661000Y-172072300D03*
D11*
X460121000Y-166992300D03*
%TD*%
%TO.C,SW45*%
X136906000Y-128892300D03*
D12*
X135636000Y-131432300D03*
D13*
X131826000Y-128892300D03*
D12*
X129286000Y-133972300D03*
D11*
X126746000Y-128892300D03*
%TD*%
%TO.C,SW5*%
X155956000Y-76504800D03*
D12*
X154686000Y-79044800D03*
D13*
X150876000Y-76504800D03*
D12*
X148336000Y-81584800D03*
D11*
X145796000Y-76504800D03*
%TD*%
%TO.C,SW94*%
X284543500Y-166992300D03*
D12*
X283273500Y-169532300D03*
D13*
X279463500Y-166992300D03*
D12*
X276923500Y-172072300D03*
D11*
X274383500Y-166992300D03*
%TD*%
%TO.C,SW101*%
X122618500Y-186042300D03*
D12*
X121348500Y-188582300D03*
D13*
X117538500Y-186042300D03*
D12*
X114998500Y-191122300D03*
D11*
X112458500Y-186042300D03*
%TD*%
D14*
%TO.C,*%
X227076112Y-143179808D03*
%TD*%
D11*
%TO.C,SW56*%
X370268500Y-128892300D03*
D12*
X368998500Y-131432300D03*
D13*
X365188500Y-128892300D03*
D12*
X362648500Y-133972300D03*
D11*
X360108500Y-128892300D03*
%TD*%
%TO.C,SW28*%
X222631000Y-100317300D03*
D12*
X221361000Y-102857300D03*
D13*
X217551000Y-100317300D03*
D12*
X215011000Y-105397300D03*
D11*
X212471000Y-100317300D03*
%TD*%
%TO.C,SW43*%
X98806000Y-128892300D03*
D12*
X97536000Y-131432300D03*
D13*
X93726000Y-128892300D03*
D12*
X91186000Y-133972300D03*
D11*
X88646000Y-128892300D03*
%TD*%
%TO.C,SW31*%
X289306000Y-100317300D03*
D12*
X288036000Y-102857300D03*
D13*
X284226000Y-100317300D03*
D12*
X281686000Y-105397300D03*
D11*
X279146000Y-100317300D03*
%TD*%
%TO.C,SW52*%
X270256000Y-128892300D03*
D12*
X268986000Y-131432300D03*
D13*
X265176000Y-128892300D03*
D12*
X262636000Y-133972300D03*
D11*
X260096000Y-128892300D03*
%TD*%
%TO.C,SW103*%
X160718500Y-186042300D03*
D12*
X159448500Y-188582300D03*
D13*
X155638500Y-186042300D03*
D12*
X153098500Y-191122300D03*
D11*
X150558500Y-186042300D03*
%TD*%
%TO.C,SW91*%
X227393500Y-166992300D03*
D12*
X226123500Y-169532300D03*
D13*
X222313500Y-166992300D03*
D12*
X219773500Y-172072300D03*
D11*
X217233500Y-166992300D03*
%TD*%
%TO.C,SW36*%
X389318500Y-100317300D03*
D12*
X388048500Y-102857300D03*
D13*
X384238500Y-100317300D03*
D12*
X381698500Y-105397300D03*
D11*
X379158500Y-100317300D03*
%TD*%
%TO.C,SW44*%
X117856000Y-128892300D03*
D12*
X116586000Y-131432300D03*
D13*
X112776000Y-128892300D03*
D12*
X110236000Y-133972300D03*
D11*
X107696000Y-128892300D03*
%TD*%
%TO.C,SW111*%
X329787250Y-186042300D03*
D12*
X328517250Y-188582300D03*
D13*
X324707250Y-186042300D03*
D12*
X322167250Y-191122300D03*
D11*
X319627250Y-186042300D03*
%TD*%
%TO.C,SW85*%
X113093500Y-166992300D03*
D12*
X111823500Y-169532300D03*
D13*
X108013500Y-166992300D03*
D12*
X105473500Y-172072300D03*
D11*
X102933500Y-166992300D03*
%TD*%
D14*
%TO.C,*%
X389000976Y-90792352D03*
%TD*%
D11*
%TO.C,SW54*%
X308356000Y-128892300D03*
D12*
X307086000Y-131432300D03*
D13*
X303276000Y-128892300D03*
D12*
X300736000Y-133972300D03*
D11*
X298196000Y-128892300D03*
%TD*%
%TO.C,SW41*%
X489331000Y-100317300D03*
D12*
X488061000Y-102857300D03*
D13*
X484251000Y-100317300D03*
D12*
X481711000Y-105397300D03*
D11*
X479171000Y-100317300D03*
%TD*%
%TO.C,SW93*%
X265493500Y-166992300D03*
D12*
X264223500Y-169532300D03*
D13*
X260413500Y-166992300D03*
D12*
X257873500Y-172072300D03*
D11*
X255333500Y-166992300D03*
%TD*%
%TO.C,SW118*%
X105949750Y-205092300D03*
D12*
X104679750Y-207632300D03*
D13*
X100869750Y-205092300D03*
D12*
X98329750Y-210172300D03*
D11*
X95789750Y-205092300D03*
%TD*%
%TO.C,SW75*%
X317881000Y-147942300D03*
D12*
X316611000Y-150482300D03*
D13*
X312801000Y-147942300D03*
D12*
X310261000Y-153022300D03*
D11*
X307721000Y-147942300D03*
%TD*%
D14*
%TO.C,*%
X179451152Y-90792352D03*
%TD*%
D11*
%TO.C,SW55*%
X336931000Y-128892300D03*
D12*
X335661000Y-131432300D03*
D13*
X331851000Y-128892300D03*
D12*
X329311000Y-133972300D03*
D11*
X326771000Y-128892300D03*
%TD*%
%TO.C,SW42*%
X79756000Y-128892300D03*
D12*
X78486000Y-131432300D03*
D13*
X74676000Y-128892300D03*
D12*
X72136000Y-133972300D03*
D11*
X69596000Y-128892300D03*
%TD*%
%TO.C,SW109*%
X275018500Y-186042300D03*
D12*
X273748500Y-188582300D03*
D13*
X269938500Y-186042300D03*
D12*
X267398500Y-191122300D03*
D11*
X264858500Y-186042300D03*
%TD*%
%TO.C,SW83*%
X489331000Y-157467300D03*
D12*
X488061000Y-160007300D03*
D13*
X484251000Y-157467300D03*
D12*
X481711000Y-162547300D03*
D11*
X479171000Y-157467300D03*
%TD*%
%TO.C,SW72*%
X260731000Y-147942300D03*
D12*
X259461000Y-150482300D03*
D13*
X255651000Y-147942300D03*
D12*
X253111000Y-153022300D03*
D11*
X250571000Y-147942300D03*
%TD*%
%TO.C,SW20*%
X470281000Y-76504800D03*
D12*
X469011000Y-79044800D03*
D13*
X465201000Y-76504800D03*
D12*
X462661000Y-81584800D03*
D11*
X460121000Y-76504800D03*
%TD*%
%TO.C,SW128*%
X441706000Y-205092300D03*
D12*
X440436000Y-207632300D03*
D13*
X436626000Y-205092300D03*
D12*
X434086000Y-210172300D03*
D11*
X431546000Y-205092300D03*
%TD*%
%TO.C,SW67*%
X165481000Y-147942300D03*
D12*
X164211000Y-150482300D03*
D13*
X160401000Y-147942300D03*
D12*
X157861000Y-153022300D03*
D11*
X155321000Y-147942300D03*
%TD*%
%TO.C,SW53*%
X289306000Y-128892300D03*
D12*
X288036000Y-131432300D03*
D13*
X284226000Y-128892300D03*
D12*
X281686000Y-133972300D03*
D11*
X279146000Y-128892300D03*
%TD*%
%TO.C,SW92*%
X246443500Y-166992300D03*
D12*
X245173500Y-169532300D03*
D13*
X241363500Y-166992300D03*
D12*
X238823500Y-172072300D03*
D11*
X236283500Y-166992300D03*
%TD*%
%TO.C,SW108*%
X255968500Y-186042300D03*
D12*
X254698500Y-188582300D03*
D13*
X250888500Y-186042300D03*
D12*
X248348500Y-191122300D03*
D11*
X245808500Y-186042300D03*
%TD*%
%TO.C,SW1*%
X79756000Y-76504800D03*
D12*
X78486000Y-79044800D03*
D13*
X74676000Y-76504800D03*
D12*
X72136000Y-81584800D03*
D11*
X69596000Y-76504800D03*
%TD*%
%TO.C,SW3*%
X117856000Y-76504800D03*
D12*
X116586000Y-79044800D03*
D13*
X112776000Y-76504800D03*
D12*
X110236000Y-81584800D03*
D11*
X107696000Y-76504800D03*
%TD*%
%TO.C,SW113*%
X432181000Y-186042300D03*
D12*
X430911000Y-188582300D03*
D13*
X427101000Y-186042300D03*
D12*
X424561000Y-191122300D03*
D11*
X422021000Y-186042300D03*
%TD*%
%TO.C,SW65*%
X127381000Y-147942300D03*
D12*
X126111000Y-150482300D03*
D13*
X122301000Y-147942300D03*
D12*
X119761000Y-153022300D03*
D11*
X117221000Y-147942300D03*
%TD*%
%TO.C,SW60*%
X451231000Y-128892300D03*
D12*
X449961000Y-131432300D03*
D13*
X446151000Y-128892300D03*
D12*
X443611000Y-133972300D03*
D11*
X441071000Y-128892300D03*
%TD*%
%TO.C,SW33*%
X327406000Y-100317300D03*
D12*
X326136000Y-102857300D03*
D13*
X322326000Y-100317300D03*
D12*
X319786000Y-105397300D03*
D11*
X317246000Y-100317300D03*
%TD*%
%TO.C,SW64*%
X108331000Y-147942300D03*
D12*
X107061000Y-150482300D03*
D13*
X103251000Y-147942300D03*
D12*
X100711000Y-153022300D03*
D11*
X98171000Y-147942300D03*
%TD*%
D20*
%TO.C,SW200*%
X218022704Y-203242156D03*
X224222704Y-203242156D03*
X218022704Y-206942156D03*
X224222704Y-206942156D03*
%TD*%
D21*
%TO.C,J4*%
X400748160Y-163182144D03*
D22*
X400748160Y-165722144D03*
X400748160Y-168262144D03*
X400748160Y-170802144D03*
%TD*%
D11*
%TO.C,SW40*%
X470281000Y-100317300D03*
D12*
X469011000Y-102857300D03*
D13*
X465201000Y-100317300D03*
D12*
X462661000Y-105397300D03*
D11*
X460121000Y-100317300D03*
%TD*%
D14*
%TO.C,*%
X255651088Y-205092256D03*
%TD*%
D11*
%TO.C,SW116*%
X489331000Y-195567300D03*
D12*
X488061000Y-198107300D03*
D13*
X484251000Y-195567300D03*
D12*
X481711000Y-200647300D03*
D11*
X479171000Y-195567300D03*
%TD*%
%TO.C,SW106*%
X217868500Y-186042300D03*
D12*
X216598500Y-188582300D03*
D13*
X212788500Y-186042300D03*
D12*
X210248500Y-191122300D03*
D11*
X207708500Y-186042300D03*
%TD*%
%TO.C,SW38*%
X432181000Y-100317300D03*
D12*
X430911000Y-102857300D03*
D13*
X427101000Y-100317300D03*
D12*
X424561000Y-105397300D03*
D11*
X422021000Y-100317300D03*
%TD*%
%TO.C,SW7*%
X203581000Y-76504800D03*
D12*
X202311000Y-79044800D03*
D13*
X198501000Y-76504800D03*
D12*
X195961000Y-81584800D03*
D11*
X193421000Y-76504800D03*
%TD*%
D23*
%TO.C,D250*%
X227075792Y-124129680D03*
%TD*%
%TO.C,D230*%
X322325712Y-95554704D03*
%TD*%
%TO.C,D206*%
X169925840Y-71742224D03*
%TD*%
%TO.C,D312*%
X174688336Y-181279632D03*
%TD*%
%TO.C,D301*%
X465200592Y-181279632D03*
%TD*%
%TO.C,D204*%
X131825872Y-71742224D03*
%TD*%
%TO.C,D260*%
X446150608Y-124129680D03*
%TD*%
%TO.C,D228*%
X365188176Y-95554704D03*
%TD*%
%TO.C,D274*%
X255650768Y-143179664D03*
%TD*%
%TO.C,D286*%
X127063376Y-162229648D03*
%TD*%
%TO.C,D324*%
X338994448Y-200329616D03*
%TD*%
%TO.C,D246*%
X150875856Y-124129680D03*
%TD*%
%TO.C,D242*%
X74675920Y-124129680D03*
%TD*%
%TO.C,D292*%
X241363280Y-162229648D03*
%TD*%
%TO.C,D305*%
X324706960Y-181279632D03*
%TD*%
%TO.C,D236*%
X198500816Y-95554704D03*
%TD*%
%TO.C,D304*%
X384238160Y-181279632D03*
%TD*%
%TO.C,D275*%
X236600784Y-143179664D03*
%TD*%
%TO.C,D279*%
X160400848Y-143179664D03*
%TD*%
%TO.C,D262*%
X484250576Y-124129680D03*
%TD*%
%TO.C,D257*%
X384238160Y-124129680D03*
%TD*%
%TO.C,D291*%
X222313296Y-162229648D03*
%TD*%
%TO.C,D270*%
X336613200Y-143179664D03*
%TD*%
%TO.C,D232*%
X284225744Y-95554704D03*
%TD*%
%TO.C,D220*%
X465200592Y-71742224D03*
%TD*%
%TO.C,D217*%
X403288144Y-71742224D03*
%TD*%
%TO.C,D272*%
X293750736Y-143179664D03*
%TD*%
%TO.C,D327*%
X403288144Y-200329616D03*
%TD*%
%TO.C,D245*%
X131825872Y-124129680D03*
%TD*%
%TO.C,D240*%
X112775888Y-95554704D03*
%TD*%
%TO.C,D252*%
X265175760Y-124129680D03*
%TD*%
%TO.C,D306*%
X288988240Y-181279632D03*
%TD*%
%TO.C,D303*%
X427100624Y-181279632D03*
%TD*%
%TO.C,D293*%
X260413264Y-162229648D03*
%TD*%
%TO.C,D244*%
X112775888Y-124129680D03*
%TD*%
%TO.C,D264*%
X465200592Y-143179664D03*
%TD*%
%TO.C,D307*%
X269938256Y-181279632D03*
%TD*%
%TO.C,D226*%
X403288144Y-95554704D03*
%TD*%
%TO.C,D205*%
X150875856Y-71742224D03*
%TD*%
%TO.C,D247*%
X169925840Y-124129680D03*
%TD*%
%TO.C,D266*%
X427100624Y-143179664D03*
%TD*%
%TO.C,D224*%
X446150608Y-95554704D03*
%TD*%
%TO.C,D223*%
X465200592Y-95554704D03*
%TD*%
%TO.C,D271*%
X312800720Y-143179664D03*
%TD*%
%TO.C,D248*%
X188975824Y-124129680D03*
%TD*%
%TO.C,D269*%
X365188176Y-143179664D03*
%TD*%
%TO.C,D325*%
X365188176Y-200329616D03*
%TD*%
%TO.C,D309*%
X231838288Y-181279632D03*
%TD*%
%TO.C,D315*%
X117538384Y-181279632D03*
%TD*%
%TO.C,D208*%
X217550800Y-71742224D03*
%TD*%
%TO.C,D254*%
X303275728Y-124129680D03*
%TD*%
%TO.C,D258*%
X403288144Y-124129680D03*
%TD*%
%TO.C,D233*%
X255650768Y-95554704D03*
%TD*%
%TO.C,D294*%
X279463248Y-162229648D03*
%TD*%
%TO.C,D243*%
X93725904Y-124129680D03*
%TD*%
%TO.C,D253*%
X284225744Y-124129680D03*
%TD*%
%TO.C,D207*%
X198500816Y-71742224D03*
%TD*%
%TO.C,D231*%
X303275728Y-95554704D03*
%TD*%
%TO.C,D326*%
X384238160Y-200329616D03*
%TD*%
%TO.C,D280*%
X141350864Y-143179664D03*
%TD*%
%TO.C,D316*%
X86582160Y-181279632D03*
%TD*%
%TO.C,D218*%
X427100624Y-71742224D03*
%TD*%
%TO.C,D267*%
X403288144Y-143179664D03*
%TD*%
%TO.C,D238*%
X150875856Y-95554704D03*
%TD*%
%TO.C,D314*%
X136588368Y-181279632D03*
%TD*%
D24*
%TO.C,J3*%
X412304750Y-67198550D03*
X418084750Y-67198550D03*
D25*
X410874750Y-63548550D03*
D26*
X410874750Y-67728550D03*
D25*
X419514750Y-63548550D03*
D26*
X419514750Y-67728550D03*
%TD*%
D23*
%TO.C,D290*%
X203263312Y-162229648D03*
%TD*%
%TO.C,D319*%
X124682128Y-200329616D03*
%TD*%
%TO.C,D329*%
X465200592Y-200329616D03*
%TD*%
%TO.C,D237*%
X169925840Y-95554704D03*
%TD*%
%TO.C,D299*%
X465200592Y-162229648D03*
%TD*%
%TO.C,D235*%
X217550800Y-95554704D03*
%TD*%
%TO.C,D277*%
X198500816Y-143179664D03*
%TD*%
%TO.C,D212*%
X303275728Y-71742224D03*
%TD*%
%TO.C,D310*%
X212788304Y-181279632D03*
%TD*%
%TO.C,D289*%
X184213328Y-162229648D03*
%TD*%
%TO.C,D259*%
X427100624Y-124129680D03*
%TD*%
D24*
%TO.C,J2*%
X350392250Y-67198550D03*
X356172250Y-67198550D03*
D25*
X348962250Y-63548550D03*
D26*
X348962250Y-67728550D03*
D25*
X357602250Y-63548550D03*
D26*
X357602250Y-67728550D03*
%TD*%
D23*
%TO.C,D216*%
X384238160Y-71742224D03*
%TD*%
%TO.C,D263*%
X484250576Y-152704656D03*
%TD*%
%TO.C,D311*%
X193738320Y-181279632D03*
%TD*%
%TO.C,D215*%
X365188176Y-71742224D03*
%TD*%
%TO.C,D297*%
X427100624Y-162229648D03*
%TD*%
%TO.C,D201*%
X74675920Y-71742224D03*
%TD*%
%TO.C,D285*%
X108013392Y-162229648D03*
%TD*%
%TO.C,D273*%
X274700752Y-143179664D03*
%TD*%
%TO.C,D322*%
X291369488Y-200329616D03*
%TD*%
%TO.C,D296*%
X329469456Y-162229648D03*
%TD*%
%TO.C,D203*%
X112775888Y-71742224D03*
%TD*%
%TO.C,D227*%
X384238160Y-95554704D03*
%TD*%
%TO.C,D225*%
X427100624Y-95554704D03*
%TD*%
%TO.C,D328*%
X436625616Y-200329616D03*
%TD*%
%TO.C,D281*%
X122300880Y-143179664D03*
%TD*%
%TO.C,D268*%
X384238160Y-143179664D03*
%TD*%
%TO.C,D313*%
X155638352Y-181279632D03*
%TD*%
%TO.C,D249*%
X208025808Y-124129680D03*
%TD*%
%TO.C,D302*%
X446150608Y-181279632D03*
%TD*%
%TO.C,D211*%
X284225744Y-71742224D03*
%TD*%
%TO.C,D317*%
X77057168Y-200329616D03*
%TD*%
%TO.C,D209*%
X236600784Y-71742224D03*
%TD*%
%TO.C,D222*%
X484250576Y-95554704D03*
%TD*%
%TO.C,D283*%
X79438416Y-143179664D03*
%TD*%
%TO.C,D229*%
X341375696Y-95554704D03*
%TD*%
%TO.C,D251*%
X246125776Y-124129680D03*
%TD*%
%TO.C,D221*%
X484250576Y-71742224D03*
%TD*%
%TO.C,D265*%
X446150608Y-143179664D03*
%TD*%
%TO.C,D241*%
X74675920Y-95554704D03*
%TD*%
%TO.C,D214*%
X341375696Y-71742224D03*
%TD*%
%TO.C,D318*%
X100869648Y-200329616D03*
%TD*%
%TO.C,D234*%
X236600784Y-95554704D03*
%TD*%
%TO.C,D276*%
X217550800Y-143179664D03*
%TD*%
%TO.C,D256*%
X365188176Y-124129680D03*
%TD*%
%TO.C,D255*%
X331850704Y-124129680D03*
%TD*%
%TO.C,D300*%
X484250576Y-190804624D03*
%TD*%
%TO.C,D210*%
X255650768Y-71742224D03*
%TD*%
%TO.C,D295*%
X298513232Y-162229648D03*
%TD*%
%TO.C,D321*%
X267557008Y-200329616D03*
%TD*%
%TO.C,D320*%
X196119568Y-200329616D03*
%TD*%
%TO.C,D282*%
X103250896Y-143179664D03*
%TD*%
%TO.C,D219*%
X446150608Y-71742224D03*
%TD*%
%TO.C,D239*%
X131825872Y-95554704D03*
%TD*%
%TO.C,D323*%
X315181968Y-200329616D03*
%TD*%
%TO.C,D308*%
X250888272Y-181279632D03*
%TD*%
%TO.C,D287*%
X146113360Y-162229648D03*
%TD*%
%TO.C,D261*%
X465200592Y-124129680D03*
%TD*%
%TO.C,D278*%
X179450832Y-143179664D03*
%TD*%
%TO.C,D288*%
X165163344Y-162229648D03*
%TD*%
%TO.C,D213*%
X322325712Y-71742224D03*
%TD*%
%TO.C,D284*%
X81819664Y-162229648D03*
%TD*%
%TO.C,D298*%
X446150608Y-162229648D03*
%TD*%
M02*
