%TF.GenerationSoftware,KiCad,Pcbnew,7.0.5*%
%TF.CreationDate,2023-06-20T21:05:11-04:00*%
%TF.ProjectId,100p-keebored,31303070-2d6b-4656-9562-6f7265642e6b,rev?*%
%TF.SameCoordinates,Original*%
%TF.FileFunction,Paste,Bot*%
%TF.FilePolarity,Positive*%
%FSLAX46Y46*%
G04 Gerber Fmt 4.6, Leading zero omitted, Abs format (unit mm)*
G04 Created by KiCad (PCBNEW 7.0.5) date 2023-06-20 21:05:11*
%MOMM*%
%LPD*%
G01*
G04 APERTURE LIST*
G04 Aperture macros list*
%AMRoundRect*
0 Rectangle with rounded corners*
0 $1 Rounding radius*
0 $2 $3 $4 $5 $6 $7 $8 $9 X,Y pos of 4 corners*
0 Add a 4 corners polygon primitive as box body*
4,1,4,$2,$3,$4,$5,$6,$7,$8,$9,$2,$3,0*
0 Add four circle primitives for the rounded corners*
1,1,$1+$1,$2,$3*
1,1,$1+$1,$4,$5*
1,1,$1+$1,$6,$7*
1,1,$1+$1,$8,$9*
0 Add four rect primitives between the rounded corners*
20,1,$1+$1,$2,$3,$4,$5,0*
20,1,$1+$1,$4,$5,$6,$7,0*
20,1,$1+$1,$6,$7,$8,$9,0*
20,1,$1+$1,$8,$9,$2,$3,0*%
G04 Aperture macros list end*
%ADD10RoundRect,0.250000X1.025000X1.000000X-1.025000X1.000000X-1.025000X-1.000000X1.025000X-1.000000X0*%
%ADD11RoundRect,0.112500X0.112500X-0.187500X0.112500X0.187500X-0.112500X0.187500X-0.112500X-0.187500X0*%
%ADD12RoundRect,0.118750X0.118750X0.231250X-0.118750X0.231250X-0.118750X-0.231250X0.118750X-0.231250X0*%
%ADD13RoundRect,0.125000X0.125000X0.225000X-0.125000X0.225000X-0.125000X-0.225000X0.125000X-0.225000X0*%
%ADD14RoundRect,0.118750X-0.118750X-0.231250X0.118750X-0.231250X0.118750X0.231250X-0.118750X0.231250X0*%
%ADD15RoundRect,0.125000X-0.125000X-0.225000X0.125000X-0.225000X0.125000X0.225000X-0.125000X0.225000X0*%
%ADD16RoundRect,0.135000X-0.185000X0.135000X-0.185000X-0.135000X0.185000X-0.135000X0.185000X0.135000X0*%
%ADD17RoundRect,0.135000X0.185000X-0.135000X0.185000X0.135000X-0.185000X0.135000X-0.185000X-0.135000X0*%
%ADD18RoundRect,0.140000X0.170000X-0.140000X0.170000X0.140000X-0.170000X0.140000X-0.170000X-0.140000X0*%
%ADD19RoundRect,0.140000X-0.170000X0.140000X-0.170000X-0.140000X0.170000X-0.140000X0.170000X0.140000X0*%
%ADD20R,0.700000X1.000000*%
%ADD21R,0.700000X0.600000*%
%ADD22RoundRect,0.140000X0.140000X0.170000X-0.140000X0.170000X-0.140000X-0.170000X0.140000X-0.170000X0*%
%ADD23R,0.600000X1.450000*%
%ADD24R,0.300000X1.450000*%
%ADD25R,0.550000X1.500000*%
%ADD26R,1.500000X0.550000*%
%ADD27RoundRect,0.135000X0.135000X0.185000X-0.135000X0.185000X-0.135000X-0.185000X0.135000X-0.185000X0*%
%ADD28RoundRect,0.135000X0.226274X0.035355X0.035355X0.226274X-0.226274X-0.035355X-0.035355X-0.226274X0*%
%ADD29R,1.200000X1.400000*%
%ADD30RoundRect,0.112500X-0.187500X-0.112500X0.187500X-0.112500X0.187500X0.112500X-0.187500X0.112500X0*%
G04 APERTURE END LIST*
D10*
%TO.C,SW10*%
X262736000Y-79044800D03*
X249809000Y-81584800D03*
%TD*%
%TO.C,SW127*%
X410373500Y-207632300D03*
X397446500Y-210172300D03*
%TD*%
%TO.C,SW96*%
X336554750Y-169532300D03*
X323627750Y-172072300D03*
%TD*%
%TO.C,SW78*%
X391323500Y-150482300D03*
X378396500Y-153022300D03*
%TD*%
%TO.C,SW115*%
X472286000Y-188582300D03*
X459359000Y-191122300D03*
%TD*%
%TO.C,SW73*%
X281786000Y-150482300D03*
X268859000Y-153022300D03*
%TD*%
%TO.C,SW50*%
X234161000Y-131432300D03*
X221234000Y-133972300D03*
%TD*%
%TO.C,SW69*%
X205586000Y-150482300D03*
X192659000Y-153022300D03*
%TD*%
%TO.C,SW19*%
X453236000Y-79044800D03*
X440309000Y-81584800D03*
%TD*%
%TO.C,SW125*%
X372273500Y-207632300D03*
X359346500Y-210172300D03*
%TD*%
%TO.C,SW76*%
X343698500Y-150482300D03*
X330771500Y-153022300D03*
%TD*%
%TO.C,SW4*%
X138911000Y-79044800D03*
X125984000Y-81584800D03*
%TD*%
%TO.C,SW51*%
X253211000Y-131432300D03*
X240284000Y-133972300D03*
%TD*%
%TO.C,SW12*%
X310361000Y-79044800D03*
X297434000Y-81584800D03*
%TD*%
%TO.C,SW71*%
X243686000Y-150482300D03*
X230759000Y-153022300D03*
%TD*%
%TO.C,SW126*%
X391323500Y-207632300D03*
X378396500Y-210172300D03*
%TD*%
%TO.C,SW119*%
X131767250Y-207632300D03*
X118840250Y-210172300D03*
%TD*%
%TO.C,SW107*%
X238923500Y-188582300D03*
X225996500Y-191122300D03*
%TD*%
%TO.C,SW27*%
X205586000Y-102857300D03*
X192659000Y-105397300D03*
%TD*%
%TO.C,SW48*%
X196061000Y-131432300D03*
X183134000Y-133972300D03*
%TD*%
%TO.C,SW81*%
X453236000Y-150482300D03*
X440309000Y-153022300D03*
%TD*%
%TO.C,SW24*%
X138911000Y-102857300D03*
X125984000Y-105397300D03*
%TD*%
%TO.C,SW62*%
X491336000Y-131432300D03*
X478409000Y-133972300D03*
%TD*%
%TO.C,SW23*%
X119861000Y-102857300D03*
X106934000Y-105397300D03*
%TD*%
%TO.C,SW88*%
X172248500Y-169532300D03*
X159321500Y-172072300D03*
%TD*%
%TO.C,SW105*%
X200823500Y-188582300D03*
X187896500Y-191122300D03*
%TD*%
%TO.C,SW8*%
X224636000Y-79044800D03*
X211709000Y-81584800D03*
%TD*%
%TO.C,SW117*%
X84142250Y-207632300D03*
X71215250Y-210172300D03*
%TD*%
%TO.C,SW79*%
X410373500Y-150482300D03*
X397446500Y-153022300D03*
%TD*%
%TO.C,SW66*%
X148436000Y-150482300D03*
X135509000Y-153022300D03*
%TD*%
%TO.C,SW30*%
X262736000Y-102857300D03*
X249809000Y-105397300D03*
%TD*%
%TO.C,SW87*%
X153198500Y-169532300D03*
X140271500Y-172072300D03*
%TD*%
%TO.C,SW68*%
X186536000Y-150482300D03*
X173609000Y-153022300D03*
%TD*%
%TO.C,SW15*%
X372273500Y-79044800D03*
X359346500Y-81584800D03*
%TD*%
%TO.C,SW25*%
X157961000Y-102857300D03*
X145034000Y-105397300D03*
%TD*%
%TO.C,SW89*%
X191298500Y-169532300D03*
X178371500Y-172072300D03*
%TD*%
%TO.C,SW39*%
X453236000Y-102857300D03*
X440309000Y-105397300D03*
%TD*%
%TO.C,SW102*%
X143673500Y-188582300D03*
X130746500Y-191122300D03*
%TD*%
%TO.C,SW70*%
X224636000Y-150482300D03*
X211709000Y-153022300D03*
%TD*%
%TO.C,SW77*%
X372273500Y-150482300D03*
X359346500Y-153022300D03*
%TD*%
%TO.C,SW59*%
X434186000Y-131432300D03*
X421259000Y-133972300D03*
%TD*%
%TO.C,SW114*%
X453236000Y-188582300D03*
X440309000Y-191122300D03*
%TD*%
%TO.C,SW11*%
X291311000Y-79044800D03*
X278384000Y-81584800D03*
%TD*%
%TO.C,SW22*%
X81761000Y-102857300D03*
X68834000Y-105397300D03*
%TD*%
%TO.C,SW61*%
X472286000Y-131432300D03*
X459359000Y-133972300D03*
%TD*%
%TO.C,SW6*%
X177011000Y-79044800D03*
X164084000Y-81584800D03*
%TD*%
%TO.C,SW97*%
X434186000Y-169532300D03*
X421259000Y-172072300D03*
%TD*%
%TO.C,SW21*%
X491336000Y-79044800D03*
X478409000Y-81584800D03*
%TD*%
%TO.C,SW29*%
X243686000Y-102857300D03*
X230759000Y-105397300D03*
%TD*%
%TO.C,SW63*%
X86523500Y-150482300D03*
X73596500Y-153022300D03*
%TD*%
%TO.C,SW124*%
X346079750Y-207632300D03*
X333152750Y-210172300D03*
%TD*%
%TO.C,SW17*%
X410373500Y-79044800D03*
X397446500Y-81584800D03*
%TD*%
%TO.C,SW49*%
X215111000Y-131432300D03*
X202184000Y-133972300D03*
%TD*%
%TO.C,SW122*%
X298454750Y-207632300D03*
X285527750Y-210172300D03*
%TD*%
%TO.C,SW16*%
X391323500Y-79044800D03*
X378396500Y-81584800D03*
%TD*%
%TO.C,SW120*%
X203204750Y-207632300D03*
X190277750Y-210172300D03*
%TD*%
%TO.C,SW26*%
X177011000Y-102857300D03*
X164084000Y-105397300D03*
%TD*%
%TO.C,SW82*%
X472286000Y-150482300D03*
X459359000Y-153022300D03*
%TD*%
%TO.C,SW58*%
X410373500Y-131432300D03*
X397446500Y-133972300D03*
%TD*%
%TO.C,SW86*%
X134148500Y-169532300D03*
X121221500Y-172072300D03*
%TD*%
%TO.C,SW84*%
X88904750Y-169532300D03*
X75977750Y-172072300D03*
%TD*%
%TO.C,SW37*%
X410373500Y-102857300D03*
X397446500Y-105397300D03*
%TD*%
%TO.C,SW90*%
X210348500Y-169532300D03*
X197421500Y-172072300D03*
%TD*%
%TO.C,SW9*%
X243686000Y-79044800D03*
X230759000Y-81584800D03*
%TD*%
%TO.C,SW18*%
X434186000Y-79044800D03*
X421259000Y-81584800D03*
%TD*%
%TO.C,SW35*%
X372273500Y-102857300D03*
X359346500Y-105397300D03*
%TD*%
%TO.C,SW34*%
X348461000Y-102857300D03*
X335534000Y-105397300D03*
%TD*%
%TO.C,SW121*%
X274642250Y-207632300D03*
X261715250Y-210172300D03*
%TD*%
%TO.C,SW46*%
X157961000Y-131432300D03*
X145034000Y-133972300D03*
%TD*%
%TO.C,SW74*%
X300836000Y-150482300D03*
X287909000Y-153022300D03*
%TD*%
%TO.C,SW47*%
X177011000Y-131432300D03*
X164084000Y-133972300D03*
%TD*%
%TO.C,SW80*%
X434186000Y-150482300D03*
X421259000Y-153022300D03*
%TD*%
%TO.C,SW32*%
X310361000Y-102857300D03*
X297434000Y-105397300D03*
%TD*%
%TO.C,SW110*%
X296073500Y-188582300D03*
X283146500Y-191122300D03*
%TD*%
%TO.C,SW129*%
X472286000Y-207632300D03*
X459359000Y-210172300D03*
%TD*%
%TO.C,SW123*%
X322267250Y-207632300D03*
X309340250Y-210172300D03*
%TD*%
%TO.C,SW98*%
X453236000Y-169532300D03*
X440309000Y-172072300D03*
%TD*%
%TO.C,SW95*%
X305598500Y-169532300D03*
X292671500Y-172072300D03*
%TD*%
%TO.C,SW14*%
X348461000Y-79044800D03*
X335534000Y-81584800D03*
%TD*%
%TO.C,SW57*%
X391323500Y-131432300D03*
X378396500Y-133972300D03*
%TD*%
%TO.C,SW104*%
X181773500Y-188582300D03*
X168846500Y-191122300D03*
%TD*%
%TO.C,SW13*%
X329411000Y-79044800D03*
X316484000Y-81584800D03*
%TD*%
%TO.C,SW112*%
X391323480Y-188582272D03*
X378396480Y-191122272D03*
%TD*%
%TO.C,SW100*%
X93667250Y-188582300D03*
X80740250Y-191122300D03*
%TD*%
%TO.C,SW99*%
X472286000Y-169532300D03*
X459359000Y-172072300D03*
%TD*%
%TO.C,SW45*%
X138911000Y-131432300D03*
X125984000Y-133972300D03*
%TD*%
%TO.C,SW5*%
X157961000Y-79044800D03*
X145034000Y-81584800D03*
%TD*%
%TO.C,SW94*%
X286548500Y-169532300D03*
X273621500Y-172072300D03*
%TD*%
%TO.C,SW101*%
X124623500Y-188582300D03*
X111696500Y-191122300D03*
%TD*%
%TO.C,SW56*%
X372273500Y-131432300D03*
X359346500Y-133972300D03*
%TD*%
%TO.C,SW28*%
X224636000Y-102857300D03*
X211709000Y-105397300D03*
%TD*%
%TO.C,SW43*%
X100811000Y-131432300D03*
X87884000Y-133972300D03*
%TD*%
%TO.C,SW31*%
X291311000Y-102857300D03*
X278384000Y-105397300D03*
%TD*%
%TO.C,SW52*%
X272261000Y-131432300D03*
X259334000Y-133972300D03*
%TD*%
%TO.C,SW103*%
X162723500Y-188582300D03*
X149796500Y-191122300D03*
%TD*%
%TO.C,SW91*%
X229398500Y-169532300D03*
X216471500Y-172072300D03*
%TD*%
%TO.C,SW36*%
X391323500Y-102857300D03*
X378396500Y-105397300D03*
%TD*%
%TO.C,SW44*%
X119861000Y-131432300D03*
X106934000Y-133972300D03*
%TD*%
%TO.C,SW111*%
X331792250Y-188582300D03*
X318865250Y-191122300D03*
%TD*%
%TO.C,SW85*%
X115098500Y-169532300D03*
X102171500Y-172072300D03*
%TD*%
%TO.C,SW54*%
X310361000Y-131432300D03*
X297434000Y-133972300D03*
%TD*%
%TO.C,SW41*%
X491336000Y-102857300D03*
X478409000Y-105397300D03*
%TD*%
%TO.C,SW93*%
X267498500Y-169532300D03*
X254571500Y-172072300D03*
%TD*%
%TO.C,SW118*%
X107954750Y-207632300D03*
X95027750Y-210172300D03*
%TD*%
%TO.C,SW75*%
X319886000Y-150482300D03*
X306959000Y-153022300D03*
%TD*%
%TO.C,SW55*%
X338936000Y-131432300D03*
X326009000Y-133972300D03*
%TD*%
%TO.C,SW42*%
X81761000Y-131432300D03*
X68834000Y-133972300D03*
%TD*%
%TO.C,SW109*%
X277023500Y-188582300D03*
X264096500Y-191122300D03*
%TD*%
%TO.C,SW83*%
X491336000Y-160007300D03*
X478409000Y-162547300D03*
%TD*%
%TO.C,SW72*%
X262736000Y-150482300D03*
X249809000Y-153022300D03*
%TD*%
%TO.C,SW20*%
X472286000Y-79044800D03*
X459359000Y-81584800D03*
%TD*%
%TO.C,SW128*%
X443711000Y-207632300D03*
X430784000Y-210172300D03*
%TD*%
%TO.C,SW67*%
X167486000Y-150482300D03*
X154559000Y-153022300D03*
%TD*%
%TO.C,SW53*%
X291311000Y-131432300D03*
X278384000Y-133972300D03*
%TD*%
%TO.C,SW92*%
X248448500Y-169532300D03*
X235521500Y-172072300D03*
%TD*%
%TO.C,SW108*%
X257973500Y-188582300D03*
X245046500Y-191122300D03*
%TD*%
%TO.C,SW1*%
X81761000Y-79044800D03*
X68834000Y-81584800D03*
%TD*%
%TO.C,SW3*%
X119861000Y-79044800D03*
X106934000Y-81584800D03*
%TD*%
%TO.C,SW113*%
X434186000Y-188582300D03*
X421259000Y-191122300D03*
%TD*%
%TO.C,SW65*%
X129386000Y-150482300D03*
X116459000Y-153022300D03*
%TD*%
%TO.C,SW60*%
X453236000Y-131432300D03*
X440309000Y-133972300D03*
%TD*%
%TO.C,SW33*%
X329411000Y-102857300D03*
X316484000Y-105397300D03*
%TD*%
%TO.C,SW64*%
X110336000Y-150482300D03*
X97409000Y-153022300D03*
%TD*%
%TO.C,SW40*%
X472286000Y-102857300D03*
X459359000Y-105397300D03*
%TD*%
%TO.C,SW116*%
X491336000Y-198107300D03*
X478409000Y-200647300D03*
%TD*%
%TO.C,SW106*%
X219873500Y-188582300D03*
X206946500Y-191122300D03*
%TD*%
%TO.C,SW38*%
X434186000Y-102857300D03*
X421259000Y-105397300D03*
%TD*%
%TO.C,SW7*%
X205586000Y-79044800D03*
X192659000Y-81584800D03*
%TD*%
D11*
%TO.C,D50*%
X234517224Y-137681276D03*
X234517224Y-135581276D03*
%TD*%
%TO.C,D16*%
X391679592Y-85293820D03*
X391679592Y-83193820D03*
%TD*%
%TO.C,D91*%
X229754728Y-175781244D03*
X229754728Y-173681244D03*
%TD*%
%TO.C,D6*%
X177367272Y-85293820D03*
X177367272Y-83193820D03*
%TD*%
%TO.C,D88*%
X172604776Y-175781244D03*
X172604776Y-173681244D03*
%TD*%
D12*
%TO.C,D250*%
X225888292Y-124679680D03*
X228263292Y-124679680D03*
X228263292Y-123579680D03*
D13*
X225875792Y-123579680D03*
%TD*%
D14*
%TO.C,D230*%
X323513212Y-95004704D03*
X321138212Y-95004704D03*
X321138212Y-96104704D03*
D15*
X323525712Y-96104704D03*
%TD*%
D11*
%TO.C,D77*%
X372629608Y-156731260D03*
X372629608Y-154631260D03*
%TD*%
D12*
%TO.C,D206*%
X168738340Y-72292224D03*
X171113340Y-72292224D03*
X171113340Y-71192224D03*
D13*
X168725840Y-71192224D03*
%TD*%
D14*
%TO.C,D312*%
X175875836Y-180729632D03*
X173500836Y-180729632D03*
X173500836Y-181829632D03*
D15*
X175888336Y-181829632D03*
%TD*%
D11*
%TO.C,D33*%
X329767144Y-109106300D03*
X329767144Y-107006300D03*
%TD*%
D16*
%TO.C,R5*%
X375159419Y-159040916D03*
X375159419Y-160060916D03*
%TD*%
D14*
%TO.C,D301*%
X466388092Y-180729632D03*
X464013092Y-180729632D03*
X464013092Y-181829632D03*
D15*
X466400592Y-181829632D03*
%TD*%
D11*
%TO.C,D35*%
X372629608Y-109106300D03*
X372629608Y-107006300D03*
%TD*%
D12*
%TO.C,D204*%
X130638372Y-72292224D03*
X133013372Y-72292224D03*
X133013372Y-71192224D03*
D13*
X130625872Y-71192224D03*
%TD*%
D12*
%TO.C,D260*%
X444963108Y-124679680D03*
X447338108Y-124679680D03*
X447338108Y-123579680D03*
D13*
X444950608Y-123579680D03*
%TD*%
D11*
%TO.C,D129*%
X472642024Y-213881212D03*
X472642024Y-211781212D03*
%TD*%
%TO.C,D63*%
X86879848Y-156731260D03*
X86879848Y-154631260D03*
%TD*%
D14*
%TO.C,D228*%
X366375676Y-95004704D03*
X364000676Y-95004704D03*
X364000676Y-96104704D03*
D15*
X366388176Y-96104704D03*
%TD*%
D11*
%TO.C,D118*%
X108311080Y-213881212D03*
X108311080Y-211781212D03*
%TD*%
D14*
%TO.C,D274*%
X256838268Y-142629664D03*
X254463268Y-142629664D03*
X254463268Y-143729664D03*
D15*
X256850768Y-143729664D03*
%TD*%
D12*
%TO.C,D286*%
X125875876Y-162779648D03*
X128250876Y-162779648D03*
X128250876Y-161679648D03*
D13*
X125863376Y-161679648D03*
%TD*%
D11*
%TO.C,D42*%
X82117352Y-137681276D03*
X82117352Y-135581276D03*
%TD*%
%TO.C,D102*%
X144029800Y-192747636D03*
X144029800Y-190647636D03*
%TD*%
D12*
%TO.C,D324*%
X337806948Y-200879616D03*
X340181948Y-200879616D03*
X340181948Y-199779616D03*
D13*
X337794448Y-199779616D03*
%TD*%
D11*
%TO.C,D120*%
X203561000Y-213881212D03*
X203561000Y-211781212D03*
%TD*%
D12*
%TO.C,D246*%
X149688356Y-124679680D03*
X152063356Y-124679680D03*
X152063356Y-123579680D03*
D13*
X149675856Y-123579680D03*
%TD*%
D12*
%TO.C,D242*%
X73488420Y-124679680D03*
X75863420Y-124679680D03*
X75863420Y-123579680D03*
D13*
X73475920Y-123579680D03*
%TD*%
D11*
%TO.C,D62*%
X491692008Y-137681276D03*
X491692008Y-135581276D03*
%TD*%
D12*
%TO.C,D292*%
X240175780Y-162779648D03*
X242550780Y-162779648D03*
X242550780Y-161679648D03*
D13*
X240163280Y-161679648D03*
%TD*%
D11*
%TO.C,D24*%
X139267304Y-109106300D03*
X139267304Y-107006300D03*
%TD*%
%TO.C,D48*%
X196417256Y-137681276D03*
X196417256Y-135581276D03*
%TD*%
%TO.C,D123*%
X322623400Y-213881212D03*
X322623400Y-211781212D03*
%TD*%
%TO.C,D115*%
X472642024Y-194831228D03*
X472642024Y-192731228D03*
%TD*%
D14*
%TO.C,D305*%
X325894460Y-180729632D03*
X323519460Y-180729632D03*
X323519460Y-181829632D03*
D15*
X325906960Y-181829632D03*
%TD*%
D17*
%TO.C,R6*%
X376892911Y-179570788D03*
X376892911Y-178550788D03*
%TD*%
D11*
%TO.C,D125*%
X372629608Y-213881212D03*
X372629608Y-211781212D03*
%TD*%
%TO.C,D43*%
X101167336Y-137681276D03*
X101167336Y-135581276D03*
%TD*%
D14*
%TO.C,D236*%
X199688316Y-95004704D03*
X197313316Y-95004704D03*
X197313316Y-96104704D03*
D15*
X199700816Y-96104704D03*
%TD*%
D11*
%TO.C,D126*%
X391679592Y-213881212D03*
X391679592Y-211781212D03*
%TD*%
D14*
%TO.C,D304*%
X385425660Y-180729632D03*
X383050660Y-180729632D03*
X383050660Y-181829632D03*
D15*
X385438160Y-181829632D03*
%TD*%
D11*
%TO.C,D128*%
X444067048Y-213881212D03*
X444067048Y-211781212D03*
%TD*%
%TO.C,D69*%
X205942248Y-156731260D03*
X205942248Y-154631260D03*
%TD*%
%TO.C,D82*%
X472642024Y-156731260D03*
X472642024Y-154631260D03*
%TD*%
D14*
%TO.C,D275*%
X237788284Y-142629664D03*
X235413284Y-142629664D03*
X235413284Y-143729664D03*
D15*
X237800784Y-143729664D03*
%TD*%
D11*
%TO.C,D28*%
X224992232Y-109106300D03*
X224992232Y-107006300D03*
%TD*%
D18*
%TO.C,C1*%
X394967220Y-167104000D03*
X394967220Y-166144000D03*
%TD*%
D11*
%TO.C,D26*%
X177367272Y-109106300D03*
X177367272Y-107006300D03*
%TD*%
%TO.C,D112*%
X391679592Y-194831228D03*
X391679592Y-192731228D03*
%TD*%
D18*
%TO.C,C4*%
X374117623Y-160030916D03*
X374117623Y-159070916D03*
%TD*%
D14*
%TO.C,D279*%
X161588348Y-142629664D03*
X159213348Y-142629664D03*
X159213348Y-143729664D03*
D15*
X161600848Y-143729664D03*
%TD*%
D11*
%TO.C,D22*%
X82117352Y-109106300D03*
X82117352Y-107006300D03*
%TD*%
D12*
%TO.C,D262*%
X483063076Y-124679680D03*
X485438076Y-124679680D03*
X485438076Y-123579680D03*
D13*
X483050576Y-123579680D03*
%TD*%
D19*
%TO.C,C8*%
X377689495Y-159070916D03*
X377689495Y-160030916D03*
%TD*%
D11*
%TO.C,D96*%
X336910888Y-173697652D03*
X336910888Y-171597652D03*
%TD*%
D12*
%TO.C,D257*%
X383050660Y-124679680D03*
X385425660Y-124679680D03*
X385425660Y-123579680D03*
D13*
X383038160Y-123579680D03*
%TD*%
D12*
%TO.C,D291*%
X221125796Y-162779648D03*
X223500796Y-162779648D03*
X223500796Y-161679648D03*
D13*
X221113296Y-161679648D03*
%TD*%
D11*
%TO.C,D114*%
X453592040Y-194831228D03*
X453592040Y-192731228D03*
%TD*%
D14*
%TO.C,D270*%
X337800700Y-142629664D03*
X335425700Y-142629664D03*
X335425700Y-143729664D03*
D15*
X337813200Y-143729664D03*
%TD*%
D14*
%TO.C,D232*%
X285413244Y-95004704D03*
X283038244Y-95004704D03*
X283038244Y-96104704D03*
D15*
X285425744Y-96104704D03*
%TD*%
D12*
%TO.C,D220*%
X464013092Y-72292224D03*
X466388092Y-72292224D03*
X466388092Y-71192224D03*
D13*
X464000592Y-71192224D03*
%TD*%
D12*
%TO.C,D217*%
X402100644Y-72292224D03*
X404475644Y-72292224D03*
X404475644Y-71192224D03*
D13*
X402088144Y-71192224D03*
%TD*%
D11*
%TO.C,D3*%
X120217320Y-85293820D03*
X120217320Y-83193820D03*
%TD*%
D14*
%TO.C,D272*%
X294938236Y-142629664D03*
X292563236Y-142629664D03*
X292563236Y-143729664D03*
D15*
X294950736Y-143729664D03*
%TD*%
D11*
%TO.C,D103*%
X163079784Y-194831228D03*
X163079784Y-192731228D03*
%TD*%
D12*
%TO.C,D327*%
X402100644Y-200879616D03*
X404475644Y-200879616D03*
X404475644Y-199779616D03*
D13*
X402088144Y-199779616D03*
%TD*%
D11*
%TO.C,D23*%
X120217320Y-109106300D03*
X120217320Y-107006300D03*
%TD*%
D12*
%TO.C,D245*%
X130638372Y-124679680D03*
X133013372Y-124679680D03*
X133013372Y-123579680D03*
D13*
X130625872Y-123579680D03*
%TD*%
D20*
%TO.C,D200*%
X354282250Y-73373550D03*
D21*
X354282250Y-75073550D03*
X352282250Y-75073550D03*
X352282250Y-73173550D03*
%TD*%
D11*
%TO.C,D73*%
X282142184Y-156731260D03*
X282142184Y-154631260D03*
%TD*%
D14*
%TO.C,D240*%
X113963388Y-95004704D03*
X111588388Y-95004704D03*
X111588388Y-96104704D03*
D15*
X113975888Y-96104704D03*
%TD*%
D12*
%TO.C,D252*%
X263988260Y-124679680D03*
X266363260Y-124679680D03*
X266363260Y-123579680D03*
D13*
X263975760Y-123579680D03*
%TD*%
D11*
%TO.C,D104*%
X182129768Y-194831228D03*
X182129768Y-192731228D03*
%TD*%
D14*
%TO.C,D306*%
X290175740Y-180729632D03*
X287800740Y-180729632D03*
X287800740Y-181829632D03*
D15*
X290188240Y-181829632D03*
%TD*%
D14*
%TO.C,D303*%
X428288124Y-180729632D03*
X425913124Y-180729632D03*
X425913124Y-181829632D03*
D15*
X428300624Y-181829632D03*
%TD*%
D11*
%TO.C,D44*%
X120217320Y-137681276D03*
X120217320Y-135581276D03*
%TD*%
D12*
%TO.C,D293*%
X259225764Y-162779648D03*
X261600764Y-162779648D03*
X261600764Y-161679648D03*
D13*
X259213264Y-161679648D03*
%TD*%
D11*
%TO.C,D40*%
X472642024Y-109106300D03*
X472642024Y-107006300D03*
%TD*%
%TO.C,D45*%
X139267304Y-137681276D03*
X139267304Y-135581276D03*
%TD*%
%TO.C,D81*%
X453592040Y-156731260D03*
X453592040Y-154631260D03*
%TD*%
%TO.C,D111*%
X332148392Y-194831228D03*
X332148392Y-192731228D03*
%TD*%
%TO.C,D7*%
X205942248Y-85293820D03*
X205942248Y-83193820D03*
%TD*%
D12*
%TO.C,D244*%
X111588388Y-124679680D03*
X113963388Y-124679680D03*
X113963388Y-123579680D03*
D13*
X111575888Y-123579680D03*
%TD*%
D16*
%TO.C,R4*%
X376201215Y-159040916D03*
X376201215Y-160060916D03*
%TD*%
D11*
%TO.C,D19*%
X453592040Y-85293820D03*
X453592040Y-83193820D03*
%TD*%
D14*
%TO.C,D264*%
X466388092Y-142629664D03*
X464013092Y-142629664D03*
X464013092Y-143729664D03*
D15*
X466400592Y-143729664D03*
%TD*%
D14*
%TO.C,D307*%
X271125756Y-180729632D03*
X268750756Y-180729632D03*
X268750756Y-181829632D03*
D15*
X271138256Y-181829632D03*
%TD*%
D14*
%TO.C,D226*%
X404475644Y-95004704D03*
X402100644Y-95004704D03*
X402100644Y-96104704D03*
D15*
X404488144Y-96104704D03*
%TD*%
D11*
%TO.C,D41*%
X491692008Y-109106300D03*
X491692008Y-107006300D03*
%TD*%
D12*
%TO.C,D205*%
X149688356Y-72292224D03*
X152063356Y-72292224D03*
X152063356Y-71192224D03*
D13*
X149675856Y-71192224D03*
%TD*%
D11*
%TO.C,D49*%
X215467240Y-137681276D03*
X215467240Y-135581276D03*
%TD*%
%TO.C,D67*%
X167842280Y-156731260D03*
X167842280Y-154631260D03*
%TD*%
%TO.C,D74*%
X301192168Y-156731260D03*
X301192168Y-154631260D03*
%TD*%
D12*
%TO.C,D247*%
X168738340Y-124679680D03*
X171113340Y-124679680D03*
X171113340Y-123579680D03*
D13*
X168725840Y-123579680D03*
%TD*%
D11*
%TO.C,D85*%
X115454824Y-175781244D03*
X115454824Y-173681244D03*
%TD*%
D14*
%TO.C,D266*%
X428288124Y-142629664D03*
X425913124Y-142629664D03*
X425913124Y-143729664D03*
D15*
X428300624Y-143729664D03*
%TD*%
D22*
%TO.C,C7*%
X369686299Y-172945436D03*
X368726299Y-172945436D03*
%TD*%
D14*
%TO.C,D224*%
X447338108Y-95004704D03*
X444963108Y-95004704D03*
X444963108Y-96104704D03*
D15*
X447350608Y-96104704D03*
%TD*%
D11*
%TO.C,D66*%
X148792296Y-156731260D03*
X148792296Y-154631260D03*
%TD*%
D14*
%TO.C,D223*%
X466388092Y-95004704D03*
X464013092Y-95004704D03*
X464013092Y-96104704D03*
D15*
X466400592Y-96104704D03*
%TD*%
D11*
%TO.C,D10*%
X263092200Y-85293820D03*
X263092200Y-83193820D03*
%TD*%
%TO.C,D70*%
X224992232Y-156731260D03*
X224992232Y-154631260D03*
%TD*%
%TO.C,D99*%
X472642024Y-175781244D03*
X472642024Y-173681244D03*
%TD*%
D14*
%TO.C,D271*%
X313988220Y-142629664D03*
X311613220Y-142629664D03*
X311613220Y-143729664D03*
D15*
X314000720Y-143729664D03*
%TD*%
D11*
%TO.C,D57*%
X391679592Y-137681276D03*
X391679592Y-135581276D03*
%TD*%
%TO.C,D15*%
X372629608Y-85293820D03*
X372629608Y-83193820D03*
%TD*%
D12*
%TO.C,D248*%
X187788324Y-124679680D03*
X190163324Y-124679680D03*
X190163324Y-123579680D03*
D13*
X187775824Y-123579680D03*
%TD*%
D14*
%TO.C,D269*%
X366375676Y-142629664D03*
X364000676Y-142629664D03*
X364000676Y-143729664D03*
D15*
X366388176Y-143729664D03*
%TD*%
D12*
%TO.C,D325*%
X364000676Y-200879616D03*
X366375676Y-200879616D03*
X366375676Y-199779616D03*
D13*
X363988176Y-199779616D03*
%TD*%
D16*
%TO.C,R3*%
X355036000Y-70332300D03*
X355036000Y-71352300D03*
%TD*%
D11*
%TO.C,D116*%
X491394352Y-202272628D03*
X491394352Y-200172628D03*
%TD*%
%TO.C,D18*%
X434542056Y-85293820D03*
X434542056Y-83193820D03*
%TD*%
D14*
%TO.C,D309*%
X233025788Y-180729632D03*
X230650788Y-180729632D03*
X230650788Y-181829632D03*
D15*
X233038288Y-181829632D03*
%TD*%
D14*
%TO.C,D315*%
X118725884Y-180729632D03*
X116350884Y-180729632D03*
X116350884Y-181829632D03*
D15*
X118738384Y-181829632D03*
%TD*%
D11*
%TO.C,D9*%
X244042216Y-85293820D03*
X244042216Y-83193820D03*
%TD*%
%TO.C,D124*%
X346435880Y-213881212D03*
X346435880Y-211781212D03*
%TD*%
D12*
%TO.C,D208*%
X216363300Y-72292224D03*
X218738300Y-72292224D03*
X218738300Y-71192224D03*
D13*
X216350800Y-71192224D03*
%TD*%
D11*
%TO.C,D39*%
X453592040Y-109106300D03*
X453592040Y-107006300D03*
%TD*%
D12*
%TO.C,D254*%
X302088228Y-124679680D03*
X304463228Y-124679680D03*
X304463228Y-123579680D03*
D13*
X302075728Y-123579680D03*
%TD*%
D11*
%TO.C,D32*%
X310717160Y-109106300D03*
X310717160Y-107006300D03*
%TD*%
%TO.C,D110*%
X296429672Y-194831228D03*
X296429672Y-192731228D03*
%TD*%
%TO.C,D127*%
X410729576Y-213881212D03*
X410729576Y-211781212D03*
%TD*%
D12*
%TO.C,D258*%
X402100644Y-124679680D03*
X404475644Y-124679680D03*
X404475644Y-123579680D03*
D13*
X402088144Y-123579680D03*
%TD*%
D11*
%TO.C,D34*%
X348817128Y-109106300D03*
X348817128Y-107006300D03*
%TD*%
%TO.C,D36*%
X391679592Y-109106300D03*
X391679592Y-107006300D03*
%TD*%
D14*
%TO.C,D233*%
X256838268Y-95004704D03*
X254463268Y-95004704D03*
X254463268Y-96104704D03*
D15*
X256850768Y-96104704D03*
%TD*%
D12*
%TO.C,D294*%
X278275748Y-162779648D03*
X280650748Y-162779648D03*
X280650748Y-161679648D03*
D13*
X278263248Y-161679648D03*
%TD*%
D12*
%TO.C,D243*%
X92538404Y-124679680D03*
X94913404Y-124679680D03*
X94913404Y-123579680D03*
D13*
X92525904Y-123579680D03*
%TD*%
D12*
%TO.C,D253*%
X283038244Y-124679680D03*
X285413244Y-124679680D03*
X285413244Y-123579680D03*
D13*
X283025744Y-123579680D03*
%TD*%
D12*
%TO.C,D207*%
X197313316Y-72292224D03*
X199688316Y-72292224D03*
X199688316Y-71192224D03*
D13*
X197300816Y-71192224D03*
%TD*%
D14*
%TO.C,D231*%
X304463228Y-95004704D03*
X302088228Y-95004704D03*
X302088228Y-96104704D03*
D15*
X304475728Y-96104704D03*
%TD*%
D12*
%TO.C,D326*%
X383050660Y-200879616D03*
X385425660Y-200879616D03*
X385425660Y-199779616D03*
D13*
X383038160Y-199779616D03*
%TD*%
D11*
%TO.C,D76*%
X344054632Y-155540636D03*
X344054632Y-153440636D03*
%TD*%
D14*
%TO.C,D280*%
X142538364Y-142629664D03*
X140163364Y-142629664D03*
X140163364Y-143729664D03*
D15*
X142550864Y-143729664D03*
%TD*%
D14*
%TO.C,D316*%
X87769660Y-180729632D03*
X85394660Y-180729632D03*
X85394660Y-181829632D03*
D15*
X87782160Y-181829632D03*
%TD*%
D11*
%TO.C,D14*%
X348817128Y-85293820D03*
X348817128Y-83193820D03*
%TD*%
D12*
%TO.C,D218*%
X425913124Y-72292224D03*
X428288124Y-72292224D03*
X428288124Y-71192224D03*
D13*
X425900624Y-71192224D03*
%TD*%
D14*
%TO.C,D267*%
X404475644Y-142629664D03*
X402100644Y-142629664D03*
X402100644Y-143729664D03*
D15*
X404488144Y-143729664D03*
%TD*%
D14*
%TO.C,D238*%
X152063356Y-95004704D03*
X149688356Y-95004704D03*
X149688356Y-96104704D03*
D15*
X152075856Y-96104704D03*
%TD*%
D14*
%TO.C,D314*%
X137775868Y-180729632D03*
X135400868Y-180729632D03*
X135400868Y-181829632D03*
D15*
X137788368Y-181829632D03*
%TD*%
D18*
%TO.C,C6*%
X378731291Y-160030916D03*
X378731291Y-159070916D03*
%TD*%
D23*
%TO.C,J3*%
X411944750Y-68643550D03*
X412744750Y-68643550D03*
D24*
X413944750Y-68643550D03*
X414944750Y-68643550D03*
X415444750Y-68643550D03*
X416444750Y-68643550D03*
D23*
X417644750Y-68643550D03*
X418444750Y-68643550D03*
X418444750Y-68643550D03*
X417644750Y-68643550D03*
D24*
X416944750Y-68643550D03*
X415944750Y-68643550D03*
X414444750Y-68643550D03*
X413444750Y-68643550D03*
D23*
X412744750Y-68643550D03*
X411944750Y-68643550D03*
%TD*%
D12*
%TO.C,D290*%
X202075812Y-162779648D03*
X204450812Y-162779648D03*
X204450812Y-161679648D03*
D13*
X202063312Y-161679648D03*
%TD*%
D12*
%TO.C,D319*%
X123494628Y-200879616D03*
X125869628Y-200879616D03*
X125869628Y-199779616D03*
D13*
X123482128Y-199779616D03*
%TD*%
D12*
%TO.C,D329*%
X464013092Y-200879616D03*
X466388092Y-200879616D03*
X466388092Y-199779616D03*
D13*
X464000592Y-199779616D03*
%TD*%
D14*
%TO.C,D237*%
X171113340Y-95004704D03*
X168738340Y-95004704D03*
X168738340Y-96104704D03*
D15*
X171125840Y-96104704D03*
%TD*%
D11*
%TO.C,D84*%
X89261096Y-175781244D03*
X89261096Y-173681244D03*
%TD*%
%TO.C,D52*%
X272617192Y-137681276D03*
X272617192Y-135581276D03*
%TD*%
D12*
%TO.C,D299*%
X464013092Y-162779648D03*
X466388092Y-162779648D03*
X466388092Y-161679648D03*
D13*
X464000592Y-161679648D03*
%TD*%
D14*
%TO.C,D235*%
X218738300Y-95004704D03*
X216363300Y-95004704D03*
X216363300Y-96104704D03*
D15*
X218750800Y-96104704D03*
%TD*%
D11*
%TO.C,D51*%
X253567208Y-137681276D03*
X253567208Y-135581276D03*
%TD*%
%TO.C,D90*%
X210704744Y-175781244D03*
X210704744Y-173681244D03*
%TD*%
D14*
%TO.C,D277*%
X199688316Y-142629664D03*
X197313316Y-142629664D03*
X197313316Y-143729664D03*
D15*
X199700816Y-143729664D03*
%TD*%
D11*
%TO.C,D12*%
X310717160Y-85293820D03*
X310717160Y-83193820D03*
%TD*%
%TO.C,D108*%
X258329704Y-194831228D03*
X258329704Y-192731228D03*
%TD*%
%TO.C,D37*%
X410729576Y-109106300D03*
X410729576Y-107006300D03*
%TD*%
%TO.C,D86*%
X134504808Y-175781244D03*
X134504808Y-173681244D03*
%TD*%
%TO.C,D72*%
X263092200Y-156731260D03*
X263092200Y-154631260D03*
%TD*%
D12*
%TO.C,D212*%
X302088228Y-72292224D03*
X304463228Y-72292224D03*
X304463228Y-71192224D03*
D13*
X302075728Y-71192224D03*
%TD*%
D14*
%TO.C,D310*%
X213975804Y-180729632D03*
X211600804Y-180729632D03*
X211600804Y-181829632D03*
D15*
X213988304Y-181829632D03*
%TD*%
D16*
%TO.C,R7*%
X413956000Y-70339300D03*
X413956000Y-71359300D03*
%TD*%
D11*
%TO.C,D79*%
X410729576Y-156731260D03*
X410729576Y-154631260D03*
%TD*%
D12*
%TO.C,D289*%
X183025828Y-162779648D03*
X185400828Y-162779648D03*
X185400828Y-161679648D03*
D13*
X183013328Y-161679648D03*
%TD*%
D11*
%TO.C,D47*%
X177367272Y-137681276D03*
X177367272Y-135581276D03*
%TD*%
%TO.C,D83*%
X491692008Y-165065628D03*
X491692008Y-162965628D03*
%TD*%
%TO.C,D117*%
X84498600Y-213881212D03*
X84498600Y-211781212D03*
%TD*%
D12*
%TO.C,D259*%
X425913124Y-124679680D03*
X428288124Y-124679680D03*
X428288124Y-123579680D03*
D13*
X425900624Y-123579680D03*
%TD*%
D23*
%TO.C,J2*%
X350032250Y-68643550D03*
X350832250Y-68643550D03*
D24*
X352032250Y-68643550D03*
X353032250Y-68643550D03*
X353532250Y-68643550D03*
X354532250Y-68643550D03*
D23*
X355732250Y-68643550D03*
X356532250Y-68643550D03*
X356532250Y-68643550D03*
X355732250Y-68643550D03*
D24*
X355032250Y-68643550D03*
X354032250Y-68643550D03*
X352532250Y-68643550D03*
X351532250Y-68643550D03*
D23*
X350832250Y-68643550D03*
X350032250Y-68643550D03*
%TD*%
D11*
%TO.C,D60*%
X453592040Y-137681276D03*
X453592040Y-135581276D03*
%TD*%
D12*
%TO.C,D216*%
X383050660Y-72292224D03*
X385425660Y-72292224D03*
X385425660Y-71192224D03*
D13*
X383038160Y-71192224D03*
%TD*%
D11*
%TO.C,D5*%
X158317288Y-85293820D03*
X158317288Y-83193820D03*
%TD*%
D14*
%TO.C,D263*%
X485438076Y-152154656D03*
X483063076Y-152154656D03*
X483063076Y-153254656D03*
D15*
X485450576Y-153254656D03*
%TD*%
D14*
%TO.C,D311*%
X194925820Y-180729632D03*
X192550820Y-180729632D03*
X192550820Y-181829632D03*
D15*
X194938320Y-181829632D03*
%TD*%
D12*
%TO.C,D215*%
X364000676Y-72292224D03*
X366375676Y-72292224D03*
X366375676Y-71192224D03*
D13*
X363988176Y-71192224D03*
%TD*%
D12*
%TO.C,D297*%
X425913124Y-162779648D03*
X428288124Y-162779648D03*
X428288124Y-161679648D03*
D13*
X425900624Y-161679648D03*
%TD*%
D12*
%TO.C,D201*%
X73488420Y-72292224D03*
X75863420Y-72292224D03*
X75863420Y-71192224D03*
D13*
X73475920Y-71192224D03*
%TD*%
D25*
%TO.C,U1*%
X372880703Y-161673564D03*
X373680703Y-161673564D03*
X374480703Y-161673564D03*
X375280703Y-161673564D03*
X376080703Y-161673564D03*
X376880703Y-161673564D03*
X377680703Y-161673564D03*
X378480703Y-161673564D03*
X379280703Y-161673564D03*
X380080703Y-161673564D03*
X380880703Y-161673564D03*
X381680703Y-161673564D03*
X382480703Y-161673564D03*
X383280703Y-161673564D03*
X384080703Y-161673564D03*
X384880703Y-161673564D03*
D26*
X386580703Y-163373564D03*
X386580703Y-164173564D03*
X386580703Y-164973564D03*
X386580703Y-165773564D03*
X386580703Y-166573564D03*
X386580703Y-167373564D03*
X386580703Y-168173564D03*
X386580703Y-168973564D03*
X386580703Y-169773564D03*
X386580703Y-170573564D03*
X386580703Y-171373564D03*
X386580703Y-172173564D03*
X386580703Y-172973564D03*
X386580703Y-173773564D03*
X386580703Y-174573564D03*
X386580703Y-175373564D03*
D25*
X384880703Y-177073564D03*
X384080703Y-177073564D03*
X383280703Y-177073564D03*
X382480703Y-177073564D03*
X381680703Y-177073564D03*
X380880703Y-177073564D03*
X380080703Y-177073564D03*
X379280703Y-177073564D03*
X378480703Y-177073564D03*
X377680703Y-177073564D03*
X376880703Y-177073564D03*
X376080703Y-177073564D03*
X375280703Y-177073564D03*
X374480703Y-177073564D03*
X373680703Y-177073564D03*
X372880703Y-177073564D03*
D26*
X371180703Y-175373564D03*
X371180703Y-174573564D03*
X371180703Y-173773564D03*
X371180703Y-172973564D03*
X371180703Y-172173564D03*
X371180703Y-171373564D03*
X371180703Y-170573564D03*
X371180703Y-169773564D03*
X371180703Y-168973564D03*
X371180703Y-168173564D03*
X371180703Y-167373564D03*
X371180703Y-166573564D03*
X371180703Y-165773564D03*
X371180703Y-164973564D03*
X371180703Y-164173564D03*
X371180703Y-163373564D03*
%TD*%
D11*
%TO.C,D53*%
X291667176Y-137681276D03*
X291667176Y-135581276D03*
%TD*%
%TO.C,D46*%
X158317288Y-137681276D03*
X158317288Y-135581276D03*
%TD*%
D19*
%TO.C,C5*%
X388239000Y-166550400D03*
X388239000Y-167510400D03*
%TD*%
D11*
%TO.C,D56*%
X372629608Y-137681276D03*
X372629608Y-135581276D03*
%TD*%
%TO.C,D31*%
X291667176Y-109106300D03*
X291667176Y-107006300D03*
%TD*%
%TO.C,D121*%
X274998440Y-213881212D03*
X274998440Y-211781212D03*
%TD*%
D12*
%TO.C,D285*%
X106825892Y-162779648D03*
X109200892Y-162779648D03*
X109200892Y-161679648D03*
D13*
X106813392Y-161679648D03*
%TD*%
D16*
%TO.C,R2*%
X352036000Y-70332300D03*
X352036000Y-71352300D03*
%TD*%
D14*
%TO.C,D273*%
X275888252Y-142629664D03*
X273513252Y-142629664D03*
X273513252Y-143729664D03*
D15*
X275900752Y-143729664D03*
%TD*%
D12*
%TO.C,D322*%
X290181988Y-200879616D03*
X292556988Y-200879616D03*
X292556988Y-199779616D03*
D13*
X290169488Y-199779616D03*
%TD*%
D11*
%TO.C,D92*%
X248804712Y-175781244D03*
X248804712Y-173681244D03*
%TD*%
%TO.C,D106*%
X220229736Y-194831228D03*
X220229736Y-192731228D03*
%TD*%
D12*
%TO.C,D296*%
X328281956Y-162779648D03*
X330656956Y-162779648D03*
X330656956Y-161679648D03*
D13*
X328269456Y-161679648D03*
%TD*%
D12*
%TO.C,D203*%
X111588388Y-72292224D03*
X113963388Y-72292224D03*
X113963388Y-71192224D03*
D13*
X111575888Y-71192224D03*
%TD*%
D14*
%TO.C,D227*%
X385425660Y-95004704D03*
X383050660Y-95004704D03*
X383050660Y-96104704D03*
D15*
X385438160Y-96104704D03*
%TD*%
D14*
%TO.C,D225*%
X428288124Y-95004704D03*
X425913124Y-95004704D03*
X425913124Y-96104704D03*
D15*
X428300624Y-96104704D03*
%TD*%
D27*
%TO.C,R1*%
X389212767Y-165355208D03*
X388192767Y-165355208D03*
%TD*%
D12*
%TO.C,D328*%
X435438116Y-200879616D03*
X437813116Y-200879616D03*
X437813116Y-199779616D03*
D13*
X435425616Y-199779616D03*
%TD*%
D14*
%TO.C,D281*%
X123488380Y-142629664D03*
X121113380Y-142629664D03*
X121113380Y-143729664D03*
D15*
X123500880Y-143729664D03*
%TD*%
D14*
%TO.C,D268*%
X385425660Y-142629664D03*
X383050660Y-142629664D03*
X383050660Y-143729664D03*
D15*
X385438160Y-143729664D03*
%TD*%
D11*
%TO.C,D13*%
X329767144Y-85293820D03*
X329767144Y-83193820D03*
%TD*%
%TO.C,D64*%
X110692328Y-156731260D03*
X110692328Y-154631260D03*
%TD*%
D14*
%TO.C,D313*%
X156825852Y-180729632D03*
X154450852Y-180729632D03*
X154450852Y-181829632D03*
D15*
X156838352Y-181829632D03*
%TD*%
D12*
%TO.C,D249*%
X206838308Y-124679680D03*
X209213308Y-124679680D03*
X209213308Y-123579680D03*
D13*
X206825808Y-123579680D03*
%TD*%
D11*
%TO.C,D97*%
X434542056Y-175781244D03*
X434542056Y-173681244D03*
%TD*%
D14*
%TO.C,D302*%
X447338108Y-180729632D03*
X444963108Y-180729632D03*
X444963108Y-181829632D03*
D15*
X447350608Y-181829632D03*
%TD*%
D12*
%TO.C,D211*%
X283038244Y-72292224D03*
X285413244Y-72292224D03*
X285413244Y-71192224D03*
D13*
X283025744Y-71192224D03*
%TD*%
D16*
%TO.C,R8*%
X416846000Y-70324800D03*
X416846000Y-71344800D03*
%TD*%
D12*
%TO.C,D317*%
X75869668Y-200879616D03*
X78244668Y-200879616D03*
X78244668Y-199779616D03*
D13*
X75857168Y-199779616D03*
%TD*%
D11*
%TO.C,D8*%
X224992232Y-85293820D03*
X224992232Y-83193820D03*
%TD*%
%TO.C,D65*%
X129742312Y-156731260D03*
X129742312Y-154631260D03*
%TD*%
D12*
%TO.C,D209*%
X235413284Y-72292224D03*
X237788284Y-72292224D03*
X237788284Y-71192224D03*
D13*
X235400784Y-71192224D03*
%TD*%
D28*
%TO.C,R9*%
X418026624Y-79755424D03*
X417305376Y-79034176D03*
%TD*%
D11*
%TO.C,D87*%
X153554792Y-175781244D03*
X153554792Y-173681244D03*
%TD*%
%TO.C,D107*%
X239279720Y-194831228D03*
X239279720Y-192731228D03*
%TD*%
D20*
%TO.C,D130*%
X416194416Y-74554800D03*
D21*
X416194416Y-76254800D03*
X414194416Y-76254800D03*
X414194416Y-74354800D03*
%TD*%
D11*
%TO.C,D68*%
X186892264Y-156731260D03*
X186892264Y-154631260D03*
%TD*%
D14*
%TO.C,D222*%
X485438076Y-95004704D03*
X483063076Y-95004704D03*
X483063076Y-96104704D03*
D15*
X485450576Y-96104704D03*
%TD*%
D14*
%TO.C,D283*%
X80625916Y-142629664D03*
X78250916Y-142629664D03*
X78250916Y-143729664D03*
D15*
X80638416Y-143729664D03*
%TD*%
D14*
%TO.C,D229*%
X342563196Y-95004704D03*
X340188196Y-95004704D03*
X340188196Y-96104704D03*
D15*
X342575696Y-96104704D03*
%TD*%
D18*
%TO.C,C3*%
X369652783Y-163305132D03*
X369652783Y-162345132D03*
%TD*%
D11*
%TO.C,D21*%
X491692008Y-85293820D03*
X491692008Y-83193820D03*
%TD*%
%TO.C,D78*%
X391679592Y-156731260D03*
X391679592Y-154631260D03*
%TD*%
%TO.C,D20*%
X472642024Y-85293820D03*
X472642024Y-83193820D03*
%TD*%
D12*
%TO.C,D251*%
X244938276Y-124679680D03*
X247313276Y-124679680D03*
X247313276Y-123579680D03*
D13*
X244925776Y-123579680D03*
%TD*%
D11*
%TO.C,D30*%
X263092200Y-109106300D03*
X263092200Y-107006300D03*
%TD*%
D12*
%TO.C,D221*%
X483063076Y-72292224D03*
X485438076Y-72292224D03*
X485438076Y-71192224D03*
D13*
X483050576Y-71192224D03*
%TD*%
D14*
%TO.C,D265*%
X447338108Y-142629664D03*
X444963108Y-142629664D03*
X444963108Y-143729664D03*
D15*
X447350608Y-143729664D03*
%TD*%
D14*
%TO.C,D241*%
X75863420Y-95004704D03*
X73488420Y-95004704D03*
X73488420Y-96104704D03*
D15*
X75875920Y-96104704D03*
%TD*%
D11*
%TO.C,D100*%
X94023592Y-194831228D03*
X94023592Y-192731228D03*
%TD*%
D12*
%TO.C,D214*%
X340188196Y-72292224D03*
X342563196Y-72292224D03*
X342563196Y-71192224D03*
D13*
X340175696Y-71192224D03*
%TD*%
D11*
%TO.C,D94*%
X286904680Y-175781244D03*
X286904680Y-173681244D03*
%TD*%
D12*
%TO.C,D318*%
X99682148Y-200879616D03*
X102057148Y-200879616D03*
X102057148Y-199779616D03*
D13*
X99669648Y-199779616D03*
%TD*%
D11*
%TO.C,D119*%
X132123560Y-213881212D03*
X132123560Y-211781212D03*
%TD*%
%TO.C,D25*%
X158317288Y-109106300D03*
X158317288Y-107006300D03*
%TD*%
%TO.C,D59*%
X434542056Y-137681276D03*
X434542056Y-135581276D03*
%TD*%
D14*
%TO.C,D234*%
X237788284Y-95004704D03*
X235413284Y-95004704D03*
X235413284Y-96104704D03*
D15*
X237800784Y-96104704D03*
%TD*%
D14*
%TO.C,D276*%
X218738300Y-142629664D03*
X216363300Y-142629664D03*
X216363300Y-143729664D03*
D15*
X218750800Y-143729664D03*
%TD*%
D11*
%TO.C,D27*%
X205942248Y-109106300D03*
X205942248Y-107006300D03*
%TD*%
D12*
%TO.C,D256*%
X364000676Y-124679680D03*
X366375676Y-124679680D03*
X366375676Y-123579680D03*
D13*
X363988176Y-123579680D03*
%TD*%
D11*
%TO.C,D54*%
X310717160Y-137681276D03*
X310717160Y-135581276D03*
%TD*%
D29*
%TO.C,Y1*%
X393584800Y-165524000D03*
X393584800Y-167724000D03*
X391884800Y-167724000D03*
X391884800Y-165524000D03*
%TD*%
D11*
%TO.C,D80*%
X434542056Y-156731260D03*
X434542056Y-154631260D03*
%TD*%
D30*
%TO.C,D55*%
X330801000Y-137185400D03*
X332901000Y-137185400D03*
%TD*%
D11*
%TO.C,D17*%
X410729576Y-85293820D03*
X410729576Y-83193820D03*
%TD*%
%TO.C,D38*%
X434542056Y-109106300D03*
X434542056Y-107006300D03*
%TD*%
D12*
%TO.C,D255*%
X330663204Y-124679680D03*
X333038204Y-124679680D03*
X333038204Y-123579680D03*
D13*
X330650704Y-123579680D03*
%TD*%
D14*
%TO.C,D300*%
X485438076Y-190254624D03*
X483063076Y-190254624D03*
X483063076Y-191354624D03*
D15*
X485450576Y-191354624D03*
%TD*%
D12*
%TO.C,D210*%
X254463268Y-72292224D03*
X256838268Y-72292224D03*
X256838268Y-71192224D03*
D13*
X254450768Y-71192224D03*
%TD*%
D12*
%TO.C,D295*%
X297325732Y-162779648D03*
X299700732Y-162779648D03*
X299700732Y-161679648D03*
D13*
X297313232Y-161679648D03*
%TD*%
D11*
%TO.C,D4*%
X139267304Y-85293820D03*
X139267304Y-83193820D03*
%TD*%
%TO.C,D89*%
X191654760Y-175781244D03*
X191654760Y-173681244D03*
%TD*%
D12*
%TO.C,D321*%
X266369508Y-200879616D03*
X268744508Y-200879616D03*
X268744508Y-199779616D03*
D13*
X266357008Y-199779616D03*
%TD*%
D12*
%TO.C,D320*%
X194932068Y-200879616D03*
X197307068Y-200879616D03*
X197307068Y-199779616D03*
D13*
X194919568Y-199779616D03*
%TD*%
D11*
%TO.C,D105*%
X201179752Y-194831228D03*
X201179752Y-192731228D03*
%TD*%
D14*
%TO.C,D282*%
X104438396Y-142629664D03*
X102063396Y-142629664D03*
X102063396Y-143729664D03*
D15*
X104450896Y-143729664D03*
%TD*%
D11*
%TO.C,D93*%
X267854696Y-175781244D03*
X267854696Y-173681244D03*
%TD*%
%TO.C,D58*%
X410729576Y-137681276D03*
X410729576Y-135581276D03*
%TD*%
%TO.C,D1*%
X82117352Y-85293820D03*
X82117352Y-83193820D03*
%TD*%
D12*
%TO.C,D219*%
X444963108Y-72292224D03*
X447338108Y-72292224D03*
X447338108Y-71192224D03*
D13*
X444950608Y-71192224D03*
%TD*%
D14*
%TO.C,D239*%
X133013372Y-95004704D03*
X130638372Y-95004704D03*
X130638372Y-96104704D03*
D15*
X133025872Y-96104704D03*
%TD*%
D12*
%TO.C,D323*%
X313994468Y-200879616D03*
X316369468Y-200879616D03*
X316369468Y-199779616D03*
D13*
X313981968Y-199779616D03*
%TD*%
D11*
%TO.C,D29*%
X244042216Y-109106300D03*
X244042216Y-107006300D03*
%TD*%
D14*
%TO.C,D308*%
X252075772Y-180729632D03*
X249700772Y-180729632D03*
X249700772Y-181829632D03*
D15*
X252088272Y-181829632D03*
%TD*%
D12*
%TO.C,D287*%
X144925860Y-162779648D03*
X147300860Y-162779648D03*
X147300860Y-161679648D03*
D13*
X144913360Y-161679648D03*
%TD*%
D11*
%TO.C,D71*%
X244042216Y-156731260D03*
X244042216Y-154631260D03*
%TD*%
%TO.C,D101*%
X124979816Y-194831228D03*
X124979816Y-192731228D03*
%TD*%
%TO.C,D75*%
X320242152Y-155540636D03*
X320242152Y-153440636D03*
%TD*%
D12*
%TO.C,D261*%
X464013092Y-124679680D03*
X466388092Y-124679680D03*
X466388092Y-123579680D03*
D13*
X464000592Y-123579680D03*
%TD*%
D14*
%TO.C,D278*%
X180638332Y-142629664D03*
X178263332Y-142629664D03*
X178263332Y-143729664D03*
D15*
X180650832Y-143729664D03*
%TD*%
D12*
%TO.C,D288*%
X163975844Y-162779648D03*
X166350844Y-162779648D03*
X166350844Y-161679648D03*
D13*
X163963344Y-161679648D03*
%TD*%
D11*
%TO.C,D122*%
X298810920Y-213881212D03*
X298810920Y-211781212D03*
%TD*%
%TO.C,D61*%
X472642024Y-137681276D03*
X472642024Y-135581276D03*
%TD*%
D12*
%TO.C,D213*%
X321138212Y-72292224D03*
X323513212Y-72292224D03*
X323513212Y-71192224D03*
D13*
X321125712Y-71192224D03*
%TD*%
D12*
%TO.C,D284*%
X80632164Y-162779648D03*
X83007164Y-162779648D03*
X83007164Y-161679648D03*
D13*
X80619664Y-161679648D03*
%TD*%
D11*
%TO.C,D11*%
X291667176Y-85293820D03*
X291667176Y-83193820D03*
%TD*%
%TO.C,D109*%
X277379688Y-194831228D03*
X277379688Y-192731228D03*
%TD*%
%TO.C,D95*%
X305954664Y-175781244D03*
X305954664Y-173681244D03*
%TD*%
D22*
%TO.C,C2*%
X393214800Y-169302904D03*
X392254800Y-169302904D03*
%TD*%
D11*
%TO.C,D113*%
X434542056Y-194831228D03*
X434542056Y-192731228D03*
%TD*%
%TO.C,D98*%
X453592040Y-175781244D03*
X453592040Y-173681244D03*
%TD*%
D12*
%TO.C,D298*%
X444963108Y-162779648D03*
X447338108Y-162779648D03*
X447338108Y-161679648D03*
D13*
X444950608Y-161679648D03*
%TD*%
M02*
