M48
; DRILL file {KiCad 7.0.3} date Fri May 19 09:12:59 2023
; FORMAT={-:-/ absolute / inch / decimal}
; #@! TF.CreationDate,2023-05-19T09:12:59-04:00
; #@! TF.GenerationSoftware,Kicad,Pcbnew,7.0.3
; #@! TF.FileFunction,Plated,1,2,PTH
FMAT,2
INCH
; #@! TA.AperFunction,Plated,PTH,ViaDrill
T1C0.0098
; #@! TA.AperFunction,Plated,PTH,ViaDrill
T2C0.0157
; #@! TA.AperFunction,Plated,PTH,ComponentDrill
T3C0.0236
; #@! TA.AperFunction,Plated,PTH,ComponentDrill
T4C0.0394
; #@! TA.AperFunction,Plated,PTH,ComponentDrill
T5C0.0591
; #@! TA.AperFunction,Plated,PTH,ComponentDrill
T6C0.1201
%
G90
G05
T1
X2.616Y-4.798
X2.64Y-3.454
X2.648Y-3.388
X2.672Y-4.736
X2.7Y-3.442
X2.704Y-3.516
X2.735Y-2.802
X2.748Y-4.904
X2.76Y-3.742
X2.76Y-4.768
X2.775Y-2.757
X2.775Y-2.847
X2.79Y-4.803
X2.7975Y-2.8245
X2.82Y-2.802
X2.838Y-4.822
X2.85Y-4.862
X2.86Y-2.807
X2.955Y-7.867
X3.0Y-7.772
X3.02Y-2.847
X3.02Y-3.782
X3.025Y-3.737
X3.03Y-4.902
X3.04Y-3.468
X3.04Y-5.617
X3.085Y-2.822
X3.095Y-6.282
X3.11Y-7.907
X3.125Y-2.787
X3.125Y-2.857
X3.135Y-6.362
X3.165Y-2.827
X3.205Y-5.657
X3.255Y-5.537
X3.2579Y-4.2967
X3.2579Y-5.4217
X3.2623Y-3.3577
X3.295Y-6.407
X3.325Y-7.117
X3.35Y-3.382
X3.3517Y-8.4217
X3.381Y-4.626
X3.386Y-4.827
X3.396Y-4.758
X3.4205Y-4.647
X3.4454Y-6.1717
X3.446Y-4.758
X3.451Y-4.829
X3.453Y-4.686
X3.454Y-3.468
X3.485Y-7.157
X3.525Y-2.712
X3.5392Y-6.9158
X3.54Y-4.784
X3.595Y-4.867
X3.605Y-2.802
X3.69Y-3.382
X3.7267Y-7.6717
X3.775Y-4.907
X3.85Y-7.772
X3.895Y-7.867
X3.99Y-5.617
X4.0Y-7.062
X4.0069Y-5.4217
X4.0079Y-3.3592
X4.01Y-7.092
X4.05Y-7.907
X4.08Y-7.092
X4.129Y-4.558
X4.135Y-5.537
X4.135Y-6.282
X4.138Y-3.468
X4.14Y-5.657
X4.143Y-4.827
X4.149Y-4.758
X4.175Y-4.572
X4.18Y-6.367
X4.2Y-4.758
X4.207Y-4.826
X4.21Y-4.689
X4.215Y-4.615
X4.228Y-3.466
X4.2892Y-8.4217
X4.306Y-4.784
X4.31Y-3.742
X4.325Y-6.407
X4.345Y-2.712
X4.35Y-4.867
X4.355Y-2.847
X4.3829Y-6.1717
X4.525Y-3.702
X4.525Y-4.907
X4.53Y-3.782
X4.55Y-7.117
X4.5704Y-6.9217
X4.705Y-7.157
X4.71Y-7.022
X4.74Y-5.617
X4.7569Y-5.4217
X4.7579Y-4.2967
X4.76Y-3.3592
X4.835Y-7.872
X4.84Y-7.772
X4.885Y-4.495
X4.885Y-5.537
X4.885Y-6.282
X4.89Y-5.657
X4.892Y-3.466
X4.9Y-3.39
X4.925Y-4.513
X4.925Y-6.367
X4.9454Y-7.6717
X4.952Y-3.39
X4.953Y-4.615
X4.955Y-4.543
X4.955Y-4.701
X4.97Y-3.466
X4.985Y-7.907
X5.05Y-4.784
X5.07Y-3.742
X5.08Y-6.407
X5.1Y-4.867
X5.105Y-2.712
X5.105Y-2.847
X5.1329Y-6.1717
X5.2266Y-8.4217
X5.27Y-3.702
X5.28Y-3.782
X5.28Y-4.907
X5.3Y-7.117
X5.3209Y-6.9217
X5.45Y-7.157
X5.46Y-7.022
X5.485Y-5.617
X5.5079Y-4.2967
X5.5079Y-5.4217
X5.51Y-3.3592
X5.633Y-4.417
X5.635Y-5.537
X5.635Y-6.282
X5.64Y-5.657
X5.648Y-3.466
X5.65Y-3.39
X5.675Y-4.441
X5.675Y-6.367
X5.6954Y-7.5897
X5.7Y-3.39
X5.705Y-4.61
X5.705Y-4.694
X5.707Y-4.543
X5.711Y-4.477
X5.712Y-3.464
X5.806Y-4.784
X5.825Y-6.407
X5.83Y-3.742
X5.855Y-2.712
X5.855Y-2.847
X5.86Y-4.867
X5.8829Y-6.1717
X6.02Y-3.707
X6.02Y-4.907
X6.03Y-3.782
X6.045Y-7.117
X6.0709Y-6.9217
X6.205Y-7.022
X6.21Y-7.157
X6.235Y-5.617
X6.2569Y-3.3592
X6.2569Y-5.4217
X6.2579Y-4.2967
X6.372Y-4.378
X6.38Y-6.282
X6.385Y-5.537
X6.39Y-5.657
X6.396Y-3.388
X6.4Y-3.464
X6.425Y-4.375
X6.425Y-6.367
X6.4454Y-7.6717
X6.452Y-3.39
X6.452Y-4.69
X6.454Y-4.542
X6.454Y-4.608
X6.455Y-4.475
X6.462Y-3.466
X6.463Y-4.411
X6.465Y-4.337
X6.572Y-4.784
X6.58Y-3.742
X6.58Y-6.407
X6.6Y-2.712
X6.6Y-2.847
X6.61Y-4.867
X6.6329Y-6.1717
X6.77Y-3.707
X6.77Y-4.907
X6.78Y-3.782
X6.8Y-7.117
X6.8199Y-6.9217
X6.955Y-7.162
X6.965Y-7.022
X6.99Y-5.617
X7.0069Y-5.4217
X7.0079Y-4.2967
X7.0079Y-3.3592
X7.135Y-5.537
X7.14Y-5.657
X7.14Y-6.282
X7.18Y-6.367
X7.1954Y-7.6717
X7.33Y-4.784
X7.33Y-6.407
X7.36Y-4.867
X7.3829Y-6.1717
X7.52Y-4.907
X7.522Y-3.39
X7.522Y-3.468
X7.55Y-3.601
X7.55Y-7.117
X7.5709Y-6.9217
X7.58Y-3.39
X7.582Y-3.466
X7.6Y-7.772
X7.645Y-7.867
X7.705Y-7.157
X7.71Y-3.742
X7.71Y-7.022
X7.72Y-2.712
X7.72Y-2.847
X7.74Y-5.617
X7.7579Y-5.4217
X7.795Y-7.907
X7.88Y-5.537
X7.885Y-6.282
X7.89Y-5.657
X7.895Y-3.707
X7.91Y-3.782
X7.925Y-6.367
X7.945Y-7.6717
X8.0157Y-8.451
X8.05Y-4.784
X8.08Y-6.407
X8.105Y-4.867
X8.1319Y-3.3592
X8.1329Y-4.2967
X8.1329Y-6.1717
X8.259Y-3.543
X8.269Y-3.694
X8.27Y-3.388
X8.271Y-3.63
X8.272Y-3.466
X8.275Y-4.907
X8.3Y-3.546
X8.3Y-7.117
X8.3199Y-6.9217
X8.326Y-3.464
X8.328Y-3.573
X8.328Y-3.693
X8.332Y-3.388
X8.332Y-3.519
X8.333Y-3.63
X8.455Y-7.022
X8.455Y-7.162
X8.47Y-3.742
X8.475Y-2.712
X8.475Y-2.847
X8.49Y-5.617
X8.5079Y-5.4217
X8.63Y-6.282
X8.635Y-5.537
X8.64Y-5.657
X8.645Y-3.707
X8.66Y-3.782
X8.675Y-6.367
X8.6954Y-7.6717
X8.82Y-4.784
X8.83Y-6.407
X8.86Y-4.867
X8.8829Y-4.2967
X8.8829Y-3.3592
X8.8829Y-6.1717
X9.02Y-4.907
X9.024Y-3.388
X9.024Y-3.466
X9.05Y-7.117
X9.0709Y-6.9217
X9.078Y-3.388
X9.078Y-3.466
X9.2Y-7.022
X9.21Y-3.742
X9.215Y-7.162
X9.225Y-2.712
X9.225Y-2.847
X9.235Y-5.617
X9.2569Y-5.4217
X9.385Y-5.537
X9.385Y-6.282
X9.395Y-3.707
X9.395Y-5.657
X9.4Y-3.782
X9.425Y-6.367
X9.4454Y-7.6717
X9.524Y-8.564
X9.531Y-8.526
X9.576Y-4.784
X9.58Y-6.407
X9.61Y-4.867
X9.6329Y-4.2967
X9.6329Y-3.3592
X9.6329Y-6.1717
X9.77Y-4.907
X9.774Y-3.396
X9.776Y-3.464
X9.795Y-7.117
X9.8199Y-6.9217
X9.826Y-3.394
X9.826Y-3.464
X9.878Y-7.778
X9.878Y-8.144
X9.945Y-7.022
X9.955Y-7.162
X9.97Y-3.742
X9.975Y-2.712
X9.975Y-2.847
X9.985Y-5.617
X10.0079Y-5.4217
X10.135Y-5.537
X10.135Y-6.282
X10.145Y-3.707
X10.145Y-5.657
X10.16Y-3.782
X10.175Y-6.367
X10.1954Y-7.6717
X10.32Y-4.784
X10.33Y-6.407
X10.36Y-4.867
X10.3819Y-3.3592
X10.3829Y-4.2967
X10.3839Y-6.1717
X10.403Y-8.477
X10.42Y-7.772
X10.434Y-8.501
X10.456Y-8.525
X10.46Y-7.867
X10.468Y-8.476
X10.515Y-4.907
X10.55Y-7.117
X10.5709Y-6.9217
X10.61Y-7.907
X10.7Y-7.022
X10.71Y-7.162
X10.74Y-5.617
X10.7579Y-5.4217
X10.8223Y-8.451
X10.885Y-5.537
X10.895Y-5.657
X10.895Y-6.282
X10.898Y-3.394
X10.9Y-3.464
X10.93Y-6.367
X10.9454Y-7.6717
X10.95Y-3.394
X10.95Y-3.464
X11.065Y-4.784
X11.08Y-6.407
X11.1Y-2.712
X11.1Y-2.847
X11.1Y-3.742
X11.11Y-4.867
X11.1329Y-6.1717
X11.217Y-7.7464
X11.218Y-7.6953
X11.265Y-3.712
X11.27Y-3.782
X11.27Y-4.907
X11.3Y-7.117
X11.3209Y-6.9217
X11.36Y-7.772
X11.395Y-7.872
X11.46Y-7.162
X11.461Y-4.2967
X11.49Y-5.617
X11.5069Y-3.3592
X11.5079Y-5.4217
X11.52Y-7.072
X11.545Y-7.907
X11.552Y-7.63
X11.552Y-7.721
X11.635Y-5.537
X11.64Y-5.657
X11.64Y-6.282
X11.644Y-4.812
X11.65Y-3.39
X11.65Y-3.464
X11.675Y-6.367
X11.694Y-4.812
X11.6954Y-7.6717
X11.7Y-3.464
X11.704Y-3.39
X11.7598Y-8.451
X11.821Y-4.784
X11.83Y-6.407
X11.85Y-2.712
X11.85Y-2.847
X11.85Y-3.742
X11.865Y-4.867
X11.8829Y-6.1717
X12.015Y-3.712
X12.02Y-3.782
X12.02Y-4.907
X12.0704Y-6.9217
X12.106Y-7.208
X12.148Y-4.818
X12.206Y-4.86
X12.211Y-4.2967
X12.219Y-4.758
X12.24Y-5.617
X12.2569Y-3.3592
X12.2579Y-5.4217
X12.27Y-7.772
X12.335Y-7.867
X12.37Y-6.377
X12.385Y-5.537
X12.39Y-5.657
X12.4Y-3.392
X12.4Y-3.464
X12.45Y-3.464
X12.458Y-3.388
X12.484Y-4.606
X12.485Y-7.907
X12.54Y-7.138
X12.586Y-6.1248
X12.59Y-3.742
X12.602Y-5.49
X12.604Y-5.582
X12.605Y-2.712
X12.605Y-2.847
X12.61Y-6.978
X12.61Y-7.208
X12.645Y-6.377
X12.69Y-5.802
X12.7Y-6.056
X12.7032Y-8.451
X12.705Y-7.117
X12.716Y-7.058
X12.724Y-6.08
X12.765Y-3.712
X12.774Y-6.07
X12.776Y-5.998
X12.776Y-6.15
X12.78Y-3.782
X12.842Y-6.15
X12.848Y-5.998
X12.85Y-6.282
X12.865Y-7.162
X12.89Y-6.367
X12.898Y-6.1
X12.92Y-7.022
X12.948Y-6.15
X12.95Y-4.632
X12.961Y-4.2967
X12.985Y-4.867
X13.0069Y-3.3592
X13.023Y-5.451
X13.05Y-6.407
X13.056Y-6.218
X13.1016Y-7.6717
X13.114Y-6.186
X13.14Y-4.907
X13.142Y-3.39
X13.144Y-3.464
X13.17Y-4.662
X13.17Y-6.15
X13.175Y-5.617
X13.194Y-3.464
X13.196Y-3.39
X13.2Y-7.772
X13.238Y-6.31
X13.264Y-6.863
X13.27Y-7.867
X13.276Y-6.252
X13.286Y-4.668
X13.292Y-4.558
X13.293Y-4.51
X13.302Y-6.316
X13.309Y-4.588
X13.32Y-5.537
X13.33Y-5.657
X13.34Y-2.712
X13.34Y-2.847
X13.35Y-3.742
X13.365Y-6.637
X13.386Y-6.608
X13.39Y-6.663
X13.425Y-7.907
X13.52Y-3.707
X13.52Y-3.782
X13.53Y-2.847
X13.537Y-3.633
X13.551Y-3.601
X13.5704Y-6.1248
X13.576Y-7.632
X13.578Y-4.462
X13.586Y-6.606
X13.588Y-4.606
X13.591Y-3.591
X13.592Y-6.894
X13.597Y-4.414
X13.598Y-3.699
X13.6Y-4.366
X13.624Y-6.766
X13.632Y-3.586
X13.633Y-4.51
X13.6348Y-8.451
X13.636Y-2.564
X13.644Y-6.153
X13.644Y-6.358
X13.645Y-5.493
X13.645Y-6.097
X13.646Y-5.579
X13.646Y-5.654
X13.646Y-6.418
X13.647Y-5.42
X13.66Y-2.628
X13.661Y-4.57
X13.674Y-3.47
X13.677Y-4.881
X13.678Y-4.933
X13.686Y-4.528
X13.693Y-3.697
X13.71Y-6.833
X13.711Y-4.2967
X13.721Y-3.625
X13.7219Y-3.4781
X13.725Y-6.89
X13.73Y-3.512
X13.7441Y-3.4559
X13.746Y-3.863
X13.747Y-6.83
X13.748Y-6.696
X13.756Y-6.782
X13.7569Y-3.3592
X13.765Y-4.547
X13.778Y-3.564
X13.78Y-3.69
X13.794Y-2.502
X13.797Y-4.501
X13.798Y-6.684
X13.803Y-8.337
X13.804Y-6.735
X13.81Y-8.242
X13.83Y-8.368
X13.833Y-4.452
X13.834Y-7.668
X13.834Y-7.728
X13.835Y-6.625
X13.8359Y-2.9666
X13.841Y-6.705
X13.846Y-3.51
X13.846Y-3.632
X13.846Y-3.848
X13.846Y-4.326
X13.847Y-4.27
X13.851Y-6.675
X13.852Y-2.592
X13.854Y-3.328
X13.866Y-8.244
X13.866Y-8.3
X13.87Y-7.302
X13.87Y-7.772
X13.874Y-6.628
X13.8751Y-2.8436
X13.8763Y-2.9123
X13.8763Y-3.0174
X13.88Y-8.4
X13.882Y-3.441
X13.89Y-3.564
X13.891Y-6.58
X13.9Y-7.25
X13.9Y-7.484
X13.9Y-7.804
X13.902Y-7.668
X13.902Y-7.73
X13.903Y-8.476
X13.909Y-2.9612
X13.911Y-8.419
X13.9116Y-6.6424
X13.915Y-8.241
X13.915Y-8.304
X13.9269Y-3.453
X13.929Y-3.821
X13.929Y-6.593
X13.929Y-8.501
X13.934Y-7.186
X13.935Y-3.748
X13.935Y-4.264
X13.938Y-3.492
X13.942Y-6.36
X13.942Y-6.414
X13.942Y-6.534
X13.942Y-7.226
X13.943Y-4.366
X13.943Y-4.604
X13.943Y-4.659
X13.943Y-4.843
X13.943Y-4.892
X13.943Y-5.426
X13.943Y-5.494
X13.943Y-5.583
X13.943Y-5.642
X13.943Y-6.101
X13.943Y-6.15
X13.9454Y-2.8025
X13.9454Y-2.8436
X13.95Y-7.668
X13.95Y-7.732
X13.95Y-7.9
X13.9506Y-3.4293
X13.952Y-7.332
X13.952Y-7.484
X13.958Y-2.59
X13.962Y-6.592
X13.966Y-3.632
X13.9762Y-6.5418
X13.98Y-7.268
X13.98Y-8.503
X13.985Y-6.825
X13.988Y-8.237
X13.99Y-3.172
X13.99Y-3.332
X13.99Y-3.392
X13.9998Y-6.5182
X14.006Y-6.578
X14.009Y-4.661
X14.009Y-4.841
X14.009Y-4.895
X14.009Y-5.417
X14.009Y-5.493
X14.009Y-5.579
X14.009Y-5.654
X14.01Y-3.7
X14.01Y-3.806
X14.01Y-4.272
X14.01Y-4.328
X14.01Y-4.603
X14.01Y-6.356
X14.01Y-6.486
X14.012Y-7.732
X14.014Y-7.912
X14.018Y-7.356
X14.018Y-7.566
X14.02Y-2.502
X14.026Y-7.184
X14.026Y-7.314
X14.028Y-7.096
X14.04Y-3.102
X14.04Y-3.662
X14.04Y-4.632
X14.04Y-5.538
X14.04Y-6.387
X14.042Y-3.502
X14.046Y-8.274
X14.0674Y-7.3539
X14.07Y-3.332
X14.07Y-3.392
X14.07Y-3.752
X14.07Y-3.812
X14.07Y-4.142
X14.07Y-4.272
X14.07Y-4.322
X14.07Y-5.412
X14.07Y-5.492
X14.07Y-5.992
X14.07Y-6.062
X14.07Y-6.504
X14.072Y-6.576
X14.072Y-6.935
X14.074Y-8.304
X14.076Y-5.654
X14.077Y-3.627
X14.078Y-4.598
X14.078Y-4.834
X14.078Y-5.577
X14.079Y-4.663
X14.081Y-4.896
X14.083Y-4.499
X14.0836Y-7.57
X14.085Y-4.413
X14.088Y-7.423
X14.109Y-7.594
X14.135Y-3.631
X14.135Y-3.756
X14.135Y-4.27
X14.136Y-3.809
X14.136Y-4.324
X14.136Y-4.411
X14.136Y-4.603
X14.136Y-4.662
X14.136Y-4.896
X14.137Y-3.69
X14.137Y-4.497
X14.137Y-4.838
X14.142Y-3.501
X14.142Y-6.825
X14.164Y-2.682
X14.171Y-6.319
X14.172Y-7.465
X14.198Y-7.812
X14.1984Y-7.668
X14.1984Y-7.732
X14.203Y-7.372
X14.214Y-7.248
X14.224Y-6.576
X14.224Y-7.535
X14.238Y-6.995
X14.244Y-6.505
X14.246Y-6.799
X14.246Y-7.802
X14.246Y-7.894
X14.248Y-7.304
X14.248Y-7.432
X14.25Y-2.674
X14.252Y-6.938
X14.252Y-7.062
X14.252Y-7.128
X14.258Y-3.422
X14.27Y-4.632
X14.27Y-7.772
X14.2775Y-6.996
X14.29Y-2.802
X14.29Y-3.742
X14.296Y-7.804
X14.3Y-4.867
X14.3Y-5.617
X14.303Y-6.934
X14.304Y-6.796
X14.305Y-7.867
X14.314Y-6.503
X14.34Y-6.576
X14.346Y-7.366
X14.356Y-7.0624
X14.356Y-7.112
X14.358Y-7.162
X14.364Y-7.429
X14.368Y-3.498
X14.368Y-7.566
X14.406Y-7.228
X14.407Y-6.505
X14.409Y-6.934
X14.41Y-6.797
X14.438Y-6.061
X14.438Y-7.524
X14.445Y-5.537
X14.45Y-7.907
X14.46Y-3.702
X14.46Y-4.907
X14.46Y-5.657
X14.465Y-6.938
X14.47Y-3.782
X14.47Y-6.729
X14.47Y-6.818
X14.472Y-6.584
X14.509Y-6.905
X14.511Y-6.659
X14.518Y-7.06
X14.52Y-7.112
X14.521Y-7.429
X14.522Y-3.424
X14.529Y-7.321
X14.532Y-7.222
X14.545Y-6.762
X14.55Y-6.865
X14.551Y-6.62
X14.556Y-6.5265
X14.556Y-6.558
X14.556Y-6.684
X14.58Y-7.464
X14.584Y-7.086
X14.61Y-6.381
X14.624Y-7.008
X14.624Y-7.192
X14.634Y-7.112
X14.644Y-7.062
X14.6477Y-3.3592
X14.6485Y-4.2967
X14.663Y-6.764
X14.665Y-6.606
X14.666Y-6.848
X14.6661Y-8.451
X14.669Y-6.668
X14.68Y-7.462
X14.688Y-7.094
X14.6954Y-5.4217
X14.6954Y-6.1717
X14.703Y-6.478
X14.706Y-4.412
X14.707Y-4.498
X14.707Y-7.334
X14.7092Y-6.9082
X14.71Y-3.538
X14.712Y-3.502
X14.717Y-7.667
X14.719Y-7.578
X14.722Y-7.172
X14.736Y-7.118
X14.753Y-7.6951
X14.753Y-7.734
X14.758Y-3.634
X14.758Y-3.704
X14.758Y-3.782
X14.758Y-4.25
X14.758Y-4.326
X14.758Y-4.414
X14.758Y-4.498
X14.758Y-4.6
X14.758Y-4.664
X14.758Y-4.84
X14.758Y-4.902
X14.758Y-5.396
X14.758Y-5.452
X14.758Y-5.578
X14.758Y-5.652
X14.758Y-5.876
X14.758Y-5.998
X14.758Y-6.052
X14.758Y-6.146
X14.758Y-6.204
X14.7609Y-3.4931
X14.769Y-7.824
X14.778Y-3.43
X14.778Y-7.902
X14.782Y-7.465
X14.783Y-7.579
X14.7831Y-3.4709
X14.784Y-7.668
X14.784Y-8.522
X14.787Y-8.421
X14.788Y-6.481
X14.788Y-7.286
X14.815Y-8.55
X14.819Y-7.185
X14.826Y-5.996
X14.826Y-6.06
X14.826Y-6.146
X14.828Y-5.578
X14.828Y-5.652
X14.83Y-3.626
X14.83Y-3.71
X14.83Y-3.772
X14.83Y-4.27
X14.83Y-4.324
X14.83Y-4.496
X14.83Y-4.6
X14.83Y-4.664
X14.83Y-4.838
X14.83Y-4.897
X14.83Y-5.38
X14.832Y-4.414
X14.832Y-5.136
X14.832Y-5.452
X14.838Y-6.402
X14.84Y-6.23
X14.84Y-7.293
X14.84Y-7.362
X14.845Y-8.423
X14.849Y-8.49
X14.864Y-6.858
X14.871Y-6.909
X14.873Y-7.439
X14.884Y-6.748
X14.887Y-4.412
X14.889Y-4.498
X14.889Y-7.898
X14.891Y-7.732
X14.893Y-7.822
X14.899Y-7.068
X14.902Y-6.85
X14.909Y-7.609
X14.927Y-6.908
X14.932Y-6.418
X14.937Y-6.859
X14.961Y-7.068
X14.963Y-7.255
X14.968Y-6.304
X14.968Y-6.418
X15.0Y-7.772
X15.021Y-7.06
X15.023Y-6.2503
X15.024Y-6.196
X15.025Y-4.632
X15.026Y-6.414
X15.029Y-7.196
X15.036Y-2.846
X15.036Y-6.524
X15.038Y-2.712
X15.04Y-3.742
X15.05Y-4.867
X15.05Y-5.617
X15.05Y-7.117
X15.055Y-7.867
X15.088Y-6.441
X15.09Y-6.918
X15.118Y-6.592
X15.137Y-6.705
X15.156Y-6.1717
X15.168Y-6.919
X15.169Y-6.621
X15.182Y-6.324
X15.185Y-6.206
X15.191Y-6.991
X15.195Y-5.537
X15.2Y-7.907
X15.205Y-3.707
X15.205Y-4.907
X15.205Y-5.657
X15.205Y-7.162
X15.21Y-3.782
X15.216Y-7.112
X15.229Y-6.974
X15.242Y-6.327
X15.245Y-6.939
X15.281Y-6.945
X15.294Y-6.678
X15.296Y-6.804
X15.305Y-6.924
X15.31Y-6.444
X15.31Y-6.7256
X15.328Y-6.852
X15.333Y-6.702
X15.3566Y-6.5836
X15.3611Y-6.9098
X15.367Y-6.488
X15.369Y-6.678
X15.376Y-6.726
X15.3957Y-6.1717
X15.3996Y-3.3592
X15.4161Y-8.451
X15.433Y-6.26
X15.436Y-6.136
X15.4449Y-5.4217
X15.4454Y-4.2967
X15.4454Y-7.6717
X15.498Y-4.413
X15.5Y-4.498
X15.501Y-6.282
X15.525Y-4.326
X15.526Y-6.665
X15.54Y-4.267
X15.547Y-8.451
X15.549Y-6.614
X15.55Y-6.504
X15.582Y-6.726
X15.584Y-6.558
X15.584Y-6.784
X15.585Y-7.072
X15.635Y-6.197
X15.635Y-7.067
X15.636Y-4.412
X15.636Y-6.255
X15.636Y-6.56
X15.636Y-6.726
X15.636Y-6.782
X15.636Y-6.84
X15.637Y-6.142
X15.638Y-4.499
X15.639Y-4.268
X15.656Y-7.036
X15.662Y-6.444
X15.687Y-6.839
X15.688Y-6.549
X15.694Y-6.648
X15.6967Y-6.7264
X15.76Y-7.772
X15.765Y-4.632
X15.784Y-2.712
X15.784Y-2.846
X15.79Y-3.742
X15.8Y-4.867
X15.8Y-5.617
X15.805Y-7.867
X15.824Y-6.25
X15.831Y-6.84
X15.86Y-6.287
X15.86Y-7.112
X15.86Y-7.772
X15.887Y-6.841
X15.895Y-6.323
X15.945Y-5.537
X15.95Y-7.907
X15.96Y-3.702
X15.96Y-4.907
X15.96Y-5.657
X15.97Y-3.782
X15.98Y-2.842
X15.986Y-6.139
X15.992Y-6.196
X16.028Y-6.126
X16.028Y-6.223
X16.029Y-6.256
X16.071Y-6.142
X16.071Y-6.207
X16.084Y-2.6
X16.099Y-2.536
X16.115Y-2.68
X16.1457Y-5.4217
X16.1457Y-6.1717
X16.1477Y-3.3592
X16.1661Y-8.451
X16.184Y-6.254
X16.1954Y-4.2967
X16.196Y-6.322
X16.201Y-6.838
X16.22Y-2.535
X16.231Y-6.244
X16.231Y-6.996
X16.254Y-6.206
X16.262Y-6.321
X16.262Y-6.838
X16.267Y-6.985
X16.292Y-6.214
X16.292Y-6.956
X16.293Y-5.574
X16.295Y-3.773
X16.301Y-4.326
X16.302Y-3.629
X16.303Y-3.705
X16.303Y-6.079
X16.304Y-4.27
X16.305Y-6.137
X16.309Y-5.647
X16.319Y-6.838
X16.32Y-6.319
X16.325Y-6.938
X16.344Y-2.636
X16.347Y-5.48
X16.348Y-6.91
X16.355Y-2.785
X16.378Y-6.838
X16.38Y-6.139
X16.38Y-6.321
X16.384Y-6.893
X16.388Y-4.269
X16.389Y-6.079
X16.39Y-4.324
X16.392Y-3.772
X16.393Y-3.701
X16.395Y-3.632
X16.398Y-5.575
X16.4354Y-6.112
X16.46Y-6.882
X16.46Y-6.982
X16.476Y-2.537
X16.49Y-6.13
X16.49Y-6.367
X16.49Y-7.592
X16.516Y-5.645
X16.52Y-6.882
X16.52Y-6.982
X16.545Y-6.842
X16.576Y-2.68
X16.58Y-6.323
X16.58Y-6.882
X16.58Y-6.982
X16.683Y-2.711
X16.685Y-6.287
X16.71Y-4.632
X16.719Y-6.325
X16.72Y-2.802
X16.721Y-2.89
X16.73Y-3.742
X16.735Y-5.617
X16.735Y-6.367
X16.735Y-7.117
X16.74Y-4.867
X16.743Y-2.66
X16.749Y-2.75
X16.885Y-5.537
X16.89Y-4.907
X16.89Y-6.407
X16.895Y-3.707
X16.895Y-5.662
X16.895Y-7.162
X16.905Y-7.032
X16.91Y-3.782
X16.919Y-6.368
X17.041Y-2.774
X17.0798Y-3.3592
X17.0827Y-5.4217
X17.0827Y-6.166
X17.115Y-7.867
X17.1329Y-4.2967
X17.1329Y-6.9217
X17.1329Y-7.6717
X17.15Y-7.772
X17.265Y-7.907
X17.3Y-5.48
X17.43Y-6.287
X17.45Y-4.632
X17.472Y-2.712
X17.472Y-2.846
X17.4786Y-8.451
X17.48Y-3.742
X17.485Y-5.617
X17.485Y-6.367
X17.485Y-7.117
X17.49Y-4.867
X17.635Y-5.537
X17.635Y-7.032
X17.64Y-3.707
X17.64Y-4.907
X17.64Y-6.407
X17.645Y-5.657
X17.655Y-7.162
X17.656Y-3.784
X17.832Y-6.164
X17.8327Y-5.4217
X17.8337Y-3.3592
X17.8829Y-4.2967
X17.8829Y-6.9217
X17.8829Y-7.6717
X18.05Y-6.211
X18.17Y-6.287
X18.19Y-4.632
X18.19Y-7.772
X18.22Y-2.846
X18.222Y-2.712
X18.226Y-3.742
X18.235Y-6.367
X18.235Y-7.117
X18.24Y-4.867
X18.24Y-5.617
X18.24Y-7.867
X18.39Y-3.732
X18.39Y-5.537
X18.39Y-6.407
X18.39Y-7.032
X18.395Y-4.907
X18.4Y-5.662
X18.405Y-7.162
X18.412Y-3.784
X18.5837Y-3.3592
X18.5837Y-5.4217
X18.591Y-6.346
X18.6036Y-8.451
X18.6329Y-4.2967
X18.6329Y-6.1717
X18.6329Y-6.9217
X18.6329Y-7.6717
X18.93Y-4.717
X18.956Y-2.712
X18.956Y-2.846
X18.966Y-3.742
X18.975Y-7.487
X18.985Y-5.987
X18.99Y-4.867
X19.13Y-7.107
X19.145Y-3.737
X19.16Y-7.532
X19.3243Y-7.9647
X19.336Y-6.4998
X19.3829Y-3.3592
X19.3829Y-4.2967
X19.3829Y-5.4217
T2
X14.04Y-4.421
X14.04Y-4.455
X14.04Y-4.489
X16.346Y-4.422
X16.346Y-4.455
X16.346Y-4.488
T4
X2.8416Y-2.7364
X2.8416Y-3.3073
X2.94Y-3.3073
X3.0384Y-2.7364
X3.0384Y-3.3073
X15.7775Y-6.4245
X15.7775Y-6.5245
X15.7775Y-6.6245
X15.7775Y-6.7245
T6
X2.84Y-3.212
X2.84Y-4.1495
X2.84Y-5.2745
X2.9337Y-8.2745
X3.0275Y-6.0245
X3.09Y-3.112
X3.09Y-4.0495
X3.09Y-5.1745
X3.1212Y-6.7745
X3.1837Y-8.1745
X3.2775Y-5.9245
X3.3087Y-7.5245
X3.3712Y-6.6745
X3.5587Y-7.4245
X3.59Y-3.212
X3.59Y-5.2745
X3.84Y-3.112
X3.84Y-5.1745
X3.8712Y-8.2745
X3.965Y-6.0245
X4.1212Y-8.1745
X4.1525Y-6.7745
X4.215Y-5.9245
X4.34Y-3.212
X4.34Y-4.1495
X4.34Y-5.2745
X4.4025Y-6.6745
X4.5275Y-7.5245
X4.59Y-3.112
X4.59Y-4.0495
X4.59Y-5.1745
X4.715Y-6.0245
X4.7775Y-7.4245
X4.8087Y-8.2745
X4.9025Y-6.7745
X4.965Y-5.9245
X5.0587Y-8.1745
X5.09Y-3.212
X5.09Y-4.1495
X5.09Y-5.2745
X5.1525Y-6.6745
X5.2775Y-7.5245
X5.34Y-3.112
X5.34Y-4.0495
X5.34Y-5.1745
X5.465Y-6.0245
X5.5275Y-7.4245
X5.6525Y-6.7745
X5.715Y-5.9245
X5.84Y-3.212
X5.84Y-4.1495
X5.84Y-5.2745
X5.9025Y-6.6745
X6.0275Y-7.5245
X6.09Y-3.112
X6.09Y-4.0495
X6.09Y-5.1745
X6.215Y-6.0245
X6.2775Y-7.4245
X6.4025Y-6.7745
X6.465Y-5.9245
X6.59Y-3.212
X6.59Y-4.1495
X6.59Y-5.2745
X6.6525Y-6.6745
X6.7775Y-7.5245
X6.84Y-3.112
X6.84Y-4.0495
X6.84Y-5.1745
X6.965Y-6.0245
X7.0275Y-7.4245
X7.1525Y-6.7745
X7.215Y-5.9245
X7.34Y-5.2745
X7.4025Y-6.6745
X7.5275Y-7.5245
X7.59Y-5.1745
X7.6212Y-8.2745
X7.715Y-3.212
X7.715Y-4.1495
X7.715Y-6.0245
X7.7775Y-7.4245
X7.8712Y-8.1745
X7.9025Y-6.7745
X7.965Y-3.112
X7.965Y-4.0495
X7.965Y-5.9245
X8.09Y-5.2745
X8.1525Y-6.6745
X8.2775Y-7.5245
X8.34Y-5.1745
X8.465Y-3.212
X8.465Y-4.1495
X8.465Y-6.0245
X8.5275Y-7.4245
X8.6525Y-6.7745
X8.715Y-3.112
X8.715Y-4.0495
X8.715Y-5.9245
X8.84Y-5.2745
X8.9025Y-6.6745
X9.0275Y-7.5245
X9.09Y-5.1745
X9.215Y-3.212
X9.215Y-4.1495
X9.215Y-6.0245
X9.2775Y-7.4245
X9.4025Y-6.7745
X9.465Y-3.112
X9.465Y-4.0495
X9.465Y-5.9245
X9.59Y-5.2745
X9.6525Y-6.6745
X9.7775Y-7.5245
X9.84Y-5.1745
X9.965Y-3.212
X9.965Y-4.1495
X9.965Y-6.0245
X10.0275Y-7.4245
X10.1525Y-6.7745
X10.215Y-3.112
X10.215Y-4.0495
X10.215Y-5.9245
X10.34Y-5.2745
X10.4025Y-6.6745
X10.4337Y-8.2745
X10.5275Y-7.5245
X10.59Y-5.1745
X10.6837Y-8.1745
X10.715Y-6.0245
X10.7775Y-7.4245
X10.9025Y-6.7745
X10.965Y-5.9245
X11.09Y-3.212
X11.09Y-4.1495
X11.09Y-5.2745
X11.1525Y-6.6745
X11.2775Y-7.5245
X11.34Y-3.112
X11.34Y-4.0495
X11.34Y-5.1745
X11.3712Y-8.2745
X11.465Y-6.0245
X11.5275Y-7.4245
X11.6212Y-8.1745
X11.6525Y-6.7745
X11.715Y-5.9245
X11.84Y-3.212
X11.84Y-4.1495
X11.84Y-5.2745
X11.9025Y-6.6745
X12.09Y-3.112
X12.09Y-4.0495
X12.09Y-5.1745
X12.215Y-6.0245
X12.3087Y-8.2745
X12.465Y-5.9245
X12.5587Y-8.1745
X12.59Y-3.212
X12.59Y-4.1495
X12.6837Y-7.5245
X12.84Y-3.112
X12.84Y-4.0495
X12.8712Y-6.7745
X12.9337Y-7.4245
X12.965Y-5.2745
X13.1212Y-6.6745
X13.1525Y-6.0245
X13.215Y-5.1745
X13.2462Y-8.2745
X13.34Y-3.212
X13.34Y-4.1495
X13.4025Y-5.9245
X13.4962Y-8.1745
X13.59Y-3.112
X13.59Y-4.0495
X14.2775Y-3.212
X14.2775Y-4.1495
X14.2775Y-5.2745
X14.2775Y-6.0245
X14.2775Y-8.2745
X14.5275Y-3.112
X14.5275Y-4.0495
X14.5275Y-5.1745
X14.5275Y-5.9245
X14.5275Y-8.1745
X15.0275Y-7.5245
X15.0275Y-3.212
X15.0275Y-4.1495
X15.0275Y-5.2745
X15.0275Y-6.0245
X15.0275Y-8.2745
X15.2775Y-7.4245
X15.2775Y-3.112
X15.2775Y-4.0495
X15.2775Y-5.1745
X15.2775Y-5.9245
X15.2775Y-8.1745
X15.7775Y-3.212
X15.7775Y-4.1495
X15.7775Y-5.2745
X15.7775Y-6.0245
X15.7775Y-8.2745
X16.0275Y-3.112
X16.0275Y-4.0495
X16.0275Y-5.1745
X16.0275Y-5.9245
X16.0275Y-8.1745
X16.715Y-3.212
X16.715Y-4.1495
X16.715Y-5.2745
X16.715Y-6.0245
X16.715Y-6.7745
X16.715Y-7.5245
X16.965Y-3.112
X16.965Y-4.0495
X16.965Y-5.1745
X16.965Y-5.9245
X16.965Y-6.6745
X16.965Y-7.4245
X17.09Y-8.2745
X17.34Y-8.1745
X17.465Y-3.212
X17.465Y-4.1495
X17.465Y-5.2745
X17.465Y-6.0245
X17.465Y-6.7745
X17.465Y-7.5245
X17.715Y-3.112
X17.715Y-4.0495
X17.715Y-5.1745
X17.715Y-5.9245
X17.715Y-6.6745
X17.715Y-7.4245
X18.215Y-3.212
X18.215Y-4.1495
X18.215Y-5.2745
X18.215Y-6.0245
X18.215Y-6.7745
X18.215Y-7.5245
X18.215Y-8.2745
X18.465Y-3.112
X18.465Y-4.0495
X18.465Y-5.1745
X18.465Y-5.9245
X18.465Y-6.6745
X18.465Y-7.4245
X18.465Y-8.1745
X18.965Y-3.212
X18.965Y-4.1495
X18.965Y-5.2745
X18.965Y-6.3995
X18.965Y-7.8995
X19.215Y-3.112
X19.215Y-4.0495
X19.215Y-5.1745
X19.215Y-6.2995
X19.215Y-7.7995
T3
G00X13.7387Y-2.4901
M15
G01X13.7387Y-2.5137
M16
G05
G00X13.7387Y-2.6448
M15
G01X13.7387Y-2.6881
M16
G05
G00X14.0788Y-2.4901
M15
G01X14.0788Y-2.5137
M16
G05
G00X14.0788Y-2.6448
M15
G01X14.0788Y-2.6881
M16
G05
G00X16.1762Y-2.4901
M15
G01X16.1762Y-2.5137
M16
G05
G00X16.1762Y-2.6448
M15
G01X16.1762Y-2.6881
M16
G05
G00X16.5163Y-2.4901
M15
G01X16.5163Y-2.5137
M16
G05
G00X16.5163Y-2.6448
M15
G01X16.5163Y-2.6881
M16
G05
T5
G00X2.7195Y-3.0376
M15
G01X2.7195Y-2.9864
M16
G05
G00X3.1605Y-3.0376
M15
G01X3.1605Y-2.9864
M16
G05
T0
M30
